<?xml version="1.0" standalone="no"?>
<!DOCTYPE svg PUBLIC "-//W3C//DTD SVG 1.1//EN" "http://www.w3.org/Graphics/SVG/1.1/DTD/svg11.dtd" >
<svg xmlns="http://www.w3.org/2000/svg">
<metadata>
Created by FontForge 20120731 at Sat Jun 24 09:38:56 2017
 By admin
</metadata>
<defs>
<font id="iconfont" horiz-adv-x="1024" >
  <font-face 
    font-family="iconfont"
    font-weight="500"
    font-stretch="normal"
    units-per-em="1024"
    panose-1="2 0 6 3 0 0 0 0 0 0"
    ascent="896"
    descent="-128"
    x-height="792"
    bbox="-1.6 -212 1074 896.345"
    underline-thickness="0"
    underline-position="0"
    unicode-range="U+0078-E895"
  />
<missing-glyph 
 />
    <glyph glyph-name=".notdef" 
 />
    <glyph glyph-name=".notdef" 
 />
    <glyph glyph-name=".null" horiz-adv-x="0" 
 />
    <glyph glyph-name="nonmarkingreturn" horiz-adv-x="341" 
 />
    <glyph glyph-name="x" unicode="x" horiz-adv-x="1001" 
d="M281 543q-27 -1 -53 -1h-83q-18 0 -36.5 -6t-32.5 -18.5t-23 -32t-9 -45.5v-76h912v41q0 16 -0.5 30t-0.5 18q0 13 -5 29t-17 29.5t-31.5 22.5t-49.5 9h-133v-97h-438v97zM955 310v-52q0 -23 0.5 -52t0.5 -58t-10.5 -47.5t-26 -30t-33 -16t-31.5 -4.5q-14 -1 -29.5 -0.5
t-29.5 0.5h-32l-45 128h-439l-44 -128h-29h-34q-20 0 -45 1q-25 0 -41 9.5t-25.5 23t-13.5 29.5t-4 30v167h911zM163 247q-12 0 -21 -8.5t-9 -21.5t9 -21.5t21 -8.5q13 0 22 8.5t9 21.5t-9 21.5t-22 8.5zM316 123q-8 -26 -14 -48q-5 -19 -10.5 -37t-7.5 -25t-3 -15t1 -14.5
t9.5 -10.5t21.5 -4h37h67h81h80h64h36q23 0 34 12t2 38q-5 13 -9.5 30.5t-9.5 34.5q-5 19 -11 39h-368zM336 498v228q0 11 2.5 23t10 21.5t20.5 15.5t34 6h188q31 0 51.5 -14.5t20.5 -52.5v-227h-327z" />
    <glyph glyph-name="shouji" unicode="&#xe612;" horiz-adv-x="1000" 
d="M734 753h-437q-23 0 -39 -16t-16 -39v-764q0 -22 16 -38t39 -16h437q22 0 38 16t16 38v764q0 23 -16 39t-38 16zM624 -66h-218v55h218v-55zM734 43h-437v655h437v-655z" />
    <glyph glyph-name="search" unicode="&#xe613;" horiz-adv-x="1000" 
d="M173 641q43 49 103 78.5t126 33.5q61 5 121 -13t108 -56q59 -45 94 -112t37 -140q4 -64 -17.5 -125.5t-63.5 -110.5q37 -36 124.5 -123.5l134.5 -134.5q-9 -9 -27.5 -28t-28.5 -28q-26 25 -118.5 117.5t-142.5 143.5q-54 -40 -121 -55.5t-133 -3.5q-65 10 -122.5 46
t-95.5 89q-50 69 -60 152q-11 73 11 144.5t71 125.5zM392 713q-31 -5 -41 -8q-64 -16 -116.5 -60t-80.5 -104q-31 -68 -26 -144q4 -72 42.5 -135t99.5 -100q63 -39 140.5 -43t144.5 29q64 31 108 89.5t56 128.5q11 66 -7 129q-18 68 -67 121.5t-114 78.5t-139 18z" />
    <glyph glyph-name="wode" unicode="&#xe614;" 
d="M931 291q0 113 -56 209.5t-152.5 153t-210.5 56.5t-210.5 -56.5t-152.5 -153t-56 -209.5q0 -89 35 -167.5t97 -137.5v0l10 -10q1 0 2.5 -1.5t2.5 -1.5q12 -10 23 -19q1 0 2 -1t2.5 -2l1.5 -1q14 -10 26 -17q1 -1 2.5 -2t2.5 -1q14 -9 28 -15q1 -1 1.5 -1h0.5
q15 -8 33 -14l1 -0.5l1 -0.5q16 -6 33 -11q1 0 2 -0.5l1 -0.5q17 -5 34 -8h4q17 -4 34 -5h1.5h2.5q19 -2 35 -2t35 2h2.5h1.5q17 1 34 5h2h2l34 8l1.5 0.5l1.5 0.5q17 5 33 11h1q1 0 1 1q18 6 33 14h1q15 7 30 16q0 1 1.5 1.5l1.5 0.5q13 8 27 18l6 4q11 9 24 19q0 1 1.5 2
t2.5 2l10 9v0q62 59 97 137.5t35 167.5zM122 291q0 106 52 195.5t142 142t196 52.5t196 -52.5t142 -142t52 -195.5q0 -82 -32.5 -155.5t-89.5 -127.5q-43 41 -120 62q-28 12 -34 17l-6 6q-14 14 -16 27v60q20 24 36 77q11 4 19.5 15.5t12.5 25.5q7 32 -6 47
q17 63 14.5 113.5t-23.5 78.5q-23 30 -62 30q-3 2 -6 7q-9 12 -22.5 17.5t-45.5 5.5h-5q-85 0 -127 -50q-54 -65 -30 -203q-11 -16 -5 -45q5 -29 27 -41q18 -53 40 -77q2 -55 0 -64q-2 -12 -14 -24q-10 -10 -39 -22q-81 -22 -124 -63q-57 54 -89.5 127.5t-32.5 155.5z
M754 -15q-10 -8 -19 -14q-1 -1 -2.5 -2t-2.5 -1q-10 -8 -24 -15l-2 -1.5t-3 -1.5q-13 -7 -26 -13l-4 -2q-14 -7 -28 -11q0 -1 -0.5 -1h-0.5q-30 -10 -61 -16q-1 0 -2 -0.5t-2 -0.5l-30 -4h-2h-2q-17 -1 -31 -1t-31 1h-4l-30 4q-1 0 -4 1q-31 6 -61 16h-0.5t-0.5 1
q-13 4 -28 11q-3 1 -5 2q-13 6 -25 13q-1 0 -6 3q-13 7 -23 14q-1 1 -3 2.5l-2 1.5q-9 7 -19 14l-1.5 1.5l-2.5 2.5q37 35 111 55q36 14 50 29q18 18 22 39q3 13 0 75v6l-4 4q-20 21 -39 77l-1 10l-11 -1q-9 5 -12 21q-2 13 0 21l9 2l-2 14q-25 132 22 188q34 40 105 40h5
q24 0 32 -3t12 -9q8 -11 18 -17l4 -2h7q26 0 40 -18q17 -24 17.5 -71.5t-15.5 -105.5l-3 -14l11 -3q2 -8 -1 -22q-2 -11 -10 -18l-12 8l-5 -19q-17 -59 -37 -79l-4 -4v-73q4 -25 25 -46l7 -7q10 -9 43 -23q71 -19 108 -54z" />
    <glyph glyph-name="search1" unicode="&#xe6c2;" 
d="M47 -212h651q19 0 33 14t14 34v240v0.5v0.5l2 1.5t3 1.5l248 -255q4 -5 10.5 -5t10.5 5q11 11 0 22l-245 254q64 61 64 151q0 54 -25.5 100.5t-67.5 74.5v0.5v0.5v80l-0.5 0.5t-0.5 1v2.5q-1 3 -3 6v0v1l-248 288h-1q-2 3 -7 4h-1t-1.5 0.5t-1.5 0.5h-434
q-20 0 -33.5 -14t-13.5 -34v-928q0 -20 13.5 -34t33.5 -14zM807 252q0 -73 -50 -124.5t-120.5 -51.5t-121 51.5t-50.5 124.5t50.5 124.5t121 51.5t120.5 -51.5t50 -124.5zM496 754l199 -230h-183q-5 0 -10.5 8t-5.5 16v206zM31 764q0 7 4.5 11.5t11.5 4.5h418v-232
q0 -20 14 -38t33 -18h202v-48q-37 16 -78 16q-85 0 -145 -64h-320q-7 0 -11.5 -4.5t-4.5 -11.5t4.5 -11.5t11.5 -4.5h295q-27 -44 -31 -96h-264q-7 0 -11.5 -4.5t-4.5 -11.5t4.5 -11.5t11.5 -4.5h264q4 -52 31 -96h-295q-7 0 -11.5 -4.5t-4.5 -11.5t4.5 -11.5t11.5 -4.5h318
h0.5h1.5q59 -64 145 -64q41 0 78 16v-224q0 -7 -4.5 -11.5t-11.5 -4.5h-651q-7 0 -11.5 4.5t-4.5 11.5v928zM171 492h186q6 0 10.5 4.5t4.5 11.5t-4.5 11.5t-10.5 4.5h-186q-7 0 -11.5 -4.5t-4.5 -11.5t4.5 -11.5t11.5 -4.5zM171 -20h403q6 0 11 4.5t5 11.5t-5 11.5t-11 4.5
h-403q-7 0 -11.5 -4.5t-4.5 -11.5t4.5 -11.5t11.5 -4.5z" />
    <glyph glyph-name="mima" unicode="&#xe61b;" 
d="M791 341l-459 1q0 11 -1.5 39.5t-1 47.5t3 44.5t11.5 46.5t24 38q27 30 65.5 51t78.5 21q62 0 109 -40.5t72 -103.5q7 -19 14.5 -27.5t21.5 -8.5q22 -1 32.5 12.5t8.5 30t-5 29.5q-70 180 -253 180q-63 0 -103 -15.5t-77 -56.5q-18 -20 -31.5 -45.5t-21 -51t-12 -53
t-5.5 -52t-2 -47.5t0 -39l-27 -1q-18 0 -31.5 -13t-13.5 -32v-378q0 -19 13.5 -32t31.5 -13h558q19 0 32.5 13t13.5 32v378q0 19 -13.5 32t-32.5 13v0zM766 -18q0 -15 -10.5 -25.5t-25.5 -10.5h-434q-15 0 -25.5 10.5t-10.5 25.5v252q0 15 10.5 25.5t25.5 10.5h434
q15 0 25.5 -10.5t10.5 -25.5v-252z" />
    <glyph glyph-name="shouji1" unicode="&#xe658;" 
d="M767 -212h-511q-26 0 -44.5 19t-18.5 45v893q0 26 18.5 45t44.5 19h511q26 0 44.5 -19t18.5 -45v-893q0 -26 -18.5 -45t-44.5 -19v0zM511 -180q14 0 23 9.5t9 22.5t-9 22.5t-22.5 9.5t-22.5 -9.5t-9 -22.5t9 -22.5t22 -9.5v0zM655 745h-287q-7 0 -11.5 -4.5t-4.5 -11.5
t4.5 -11.5t11.5 -4.5h287q7 0 11.5 4.5t4.5 11.5t-4.5 11.5t-11.5 4.5v0zM767 649h-511v-733h511v733v0z" />
    <glyph glyph-name="angleleft" unicode="&#xe615;" 
d="M314 302l430 -431l-42 -42l-474 473l474 473l42 -43z" />
    <glyph glyph-name="search2" unicode="&#xe672;" 
d="M950 -96l-270 272q81 96 81 222q0 95 -46.5 175t-127 126.5t-175 46.5t-174.5 -46.5t-126.5 -126.5t-46.5 -174.5t46.5 -174.5t126.5 -126.5t175 -46.5q130 0 228 85l270 -272q8 -8 19.5 -8t19.5 8.5t8 20t-8 19.5zM413 106q-121 0 -207 85.5t-86 207t86 207t207 85.5
t206.5 -85.5t85.5 -207t-85.5 -207t-206.5 -85.5z" />
    <glyph glyph-name="ordinarymobile" unicode="&#xe683;" 
d="M685 771h-346q-32 0 -55 -23t-23 -55v-786q0 -32 23 -55t55 -23h346q32 0 55 23t23 55v786q0 32 -23 55t-55 23zM465 709h94q7 0 11.5 -5t4.5 -11.5t-4.5 -11t-11.5 -4.5h-94q-7 0 -11.5 4.5t-4.5 11t4.5 11.5t11.5 5zM512 -140q-20 0 -33.5 14t-13.5 33.5t13.5 33
t33.5 13.5t33.5 -13.5t13.5 -33t-13.5 -33.5t-33.5 -14zM732 -14h-440v628h440v-628z" />
    <glyph glyph-name="search3" unicode="&#xe616;" 
d="M335 607q-84 -38 -130.5 -118.5t-35.5 -170.5q6 -57 32.5 -105.5t67.5 -81.5t90.5 -51.5t105 -17t106.5 24.5l72 33l93 -93q55 -55 77.5 -70t33.5 -4t-4 33.5t-71 78.5l-93 93l31 58q26 48 30 117t-15 120q-20 53 -64 94.5t-97.5 62.5t-114.5 21t-114 -24zM558 563
q68 -31 99.5 -83t31.5 -133q0 -82 -32.5 -133.5t-104.5 -83.5q-139 -63 -256 43q-46 42 -66.5 98t-13.5 110t41 102.5t90 76.5q57 28 104.5 28.5t106.5 -25.5z" />
    <glyph glyph-name="iconfontcommentfill" unicode="&#xe617;" horiz-adv-x="1066" 
d="M942 812h-819q-51 0 -87 -36t-36 -87v-655q0 -51 36 -87t87 -36h270l111 -111q12 -12 28.5 -12t28.5 12l111 111h270q51 0 87 36t36 87v655q0 51 -36 87t-87 36v0zM307 320q-25 0 -43 18.5t-18 43.5t18 43t43.5 18t43.5 -18t18 -43t-18 -43.5t-44 -18.5v0zM553 320
q-25 0 -43 18.5t-18 43.5t18 43t43 18t43 -18t18 -43t-18 -43.5t-43 -18.5v0zM799 320q-26 0 -44 18.5t-18 43.5t18 43t43.5 18t43.5 -18t18 -43t-18 -43.5t-43 -18.5v0zM799 320z" />
    <glyph glyph-name="search4" unicode="&#xe714;" 
d="M400.5 59q-94.5 0 -175 46.5t-127 127t-46.5 175t46.5 174.5t127 127t175 47t174.5 -47t127 -127t47 -174.5t-47 -175t-127 -127t-174.5 -46.5zM400.5 699q-120.5 0 -206 -85.5t-85.5 -206t85.5 -206t206 -85.5t206 85.5t85.5 206t-85.5 206t-206 85.5zM194 515
q-4 0 -7 2q-12 7 -5 20q34 57 92.5 90.5t125.5 33.5q6 0 10 -4.5t4 -10t-4 -10t-10 -4.5q-59 0 -111 -29.5t-83 -80.5q-4 -7 -12 -7zM161 401q-6 0 -10.5 4.5t-4.5 9.5q0 22 7 50q1 6 6 9t11 1.5t9 -6.5t2 -10q-6 -26 -6 -44q0 -5 -4 -9.5t-10 -4.5zM887 -156q-35 0 -60 25
l-230 230q-27 28 -16 62q6 20 30 44q34 34 63 34q24 0 44 -19l229 -230q25 -25 25 -60.5t-25 -60.5t-60 -25zM635 142v0q1 -1 2 -3l230 -229q8 -8 20 -8t20 8t8 20t-8 20l-229 229q-3 3 -4 3q-12 -7 -22 -17q-17 -17 -17 -23v0z" />
    <glyph glyph-name="zan" unicode="&#xe618;" 
d="M771 -48h-228q-3 0 -6 1l-156 45h-42q-10 0 -16.5 7t-6.5 16v367q0 10 6.5 16.5t16.5 6.5h34l79 100v84q0 38 27 65t64.5 27t64 -27t26.5 -65v-188l231 -42q10 -2 15.5 -10.5t2.5 -17.5l-90 -367q-4 -18 -22 -18zM546 -2h207l80 326l-226 41q-8 2 -13.5 8t-5.5 15v207
q0 19 -13 32.5t-31.5 13.5t-32 -13.5t-13.5 -32.5v-92q0 -8 -5 -14l-91 -115q-7 -9 -18 -9h-22v-321h22q4 0 7 -1zM271 -2h-91q-10 0 -16.5 7t-6.5 16v367q0 10 6.5 16.5t16.5 6.5h91q9 0 16 -6.5t7 -16.5v-367q0 -9 -7 -16t-16 -7zM203 44h45v321h-45v-321z" />
    <glyph glyph-name="wo" unicode="&#xe653;" 
d="M942 -78q-34 150 -154 247q-58 47 -128 72q-13 5 -27 9q29 17 53 41q73 73 73 176.5t-73.5 177t-177 73.5t-177 -73.5t-73.5 -177t74 -176.5q24 -25 53 -41q-13 -4 -26 -9q-70 -25 -128 -73q-120 -97 -153 -248q-3 -10 3 -19t16 -11q3 -1 6 -1q8 0 15.5 5.5t9.5 14.5
q29 133 135 220q52 41 114 64q64 23 133 23t133 -23q62 -22 113 -64q106 -86 136 -218q2 -11 11 -16.5t19.5 -3t16 11.5t3.5 19zM309 467.5q0 82.5 58.5 141t141 58.5t141 -58.5t58.5 -141t-58.5 -141t-141 -58.5t-141 58.5t-58.5 141z" />
    <glyph glyph-name="xinxi" unicode="&#xe62d;" 
d="M512 152zM512 152zM512 802q-102 0 -195 -39.5t-160.5 -107t-107 -160.5t-39.5 -195t39.5 -195t107 -160.5t160.5 -107t195 -39.5t195 39.5t160.5 107t107 160.5t39.5 195t-39.5 195t-107 160.5t-160.5 107t-195 39.5zM805 91h-586v279l205 -142q37 -26 88 -26t88 26
l205 142v-279zM805 451l-243 -168q-20 -14 -50 -14t-50 14l-243 168v58h586v-58z" />
    <glyph glyph-name="mima1" unicode="&#xe628;" 
d="M804 396v128q0 119 -84.5 203.5t-203.5 84.5t-203.5 -84.5t-84.5 -203.5v-128q-40 0 -68 -28t-28 -68v-224q0 -119 84.5 -203.5t203.5 -84.5h192q119 0 203.5 84.5t84.5 203.5v224q0 40 -28 68t-68 28zM292 524q0 93 65.5 158.5t158.5 65.5t158.5 -65.5t65.5 -158.5v-128
h-64v128q0 66 -47 113t-113 47t-113 -47t-47 -113v-128h-64v128zM644 524v-128h-256v128q0 53 37.5 90.5t90.5 37.5t90.5 -37.5t37.5 -90.5zM836 204v-128q0 -93 -65.5 -158.5t-158.5 -65.5h-192q-93 0 -158.5 65.5t-65.5 158.5v224q0 13 9.5 22.5t22.5 9.5h64h448h64
q13 0 22.5 -9.5t9.5 -22.5v-96zM516 204q27 0 45.5 -18.5t18.5 -45.5q0 -28 -21 -86q-8 -21 -17 -31.5t-26 -10.5q-27 0 -43 42q-21 59 -21 86t18.5 45.5t45.5 18.5z" />
    <glyph glyph-name="lipinicon" unicode="&#xe61f;" 
d="M848 522h-151q26 15 46 33q45 43 52.5 96t-28.5 86q-29 27 -75 27q-66 0 -120 -50q-31 -28 -50 -69q-20 41 -51 69q-54 50 -120 50q-46 0 -75 -27q-36 -33 -28.5 -86t52.5 -96q20 -18 46 -33h-151q-27 0 -46 -19t-19 -46v-229h359v265q19 5 31 17l2 1l1 -1q12 -12 31 -17
v-265h359v229q0 27 -19 46t-46 19zM475 559v0q-5 -3 -17 -3q-26 0 -58 13.5t-54 34.5q-33 30 -33 63q0 14 8 21q10 10 30 10q40 0 75 -32q27 -26 40.5 -61t8.5 -46zM569 558v0q-6 12 7.5 47t40.5 61q35 32 75 32q20 0 30 -10q8 -7 8 -21q0 -33 -33 -63q-22 -21 -54 -34.5
t-58 -13.5q-4 0 -8 0.5t-6 1zM554 -131h294q27 0 46 19t19 46v229h-359v-294zM130 -66q0 -27 19 -46t46 -19h294v294h-359v-229z" />
    <glyph glyph-name="angleleft1" unicode="&#xe619;" 
d="M666 476q0 -6 -6 -12l-196 -196l196 -196q6 -6 6 -12t-6 -12l-24 -24q-6 -6 -12 -6t-12 6l-232 232q-6 6 -6 12t6 12l232 232q6 6 12 6t12 -6l24 -24q6 -6 6 -12z" />
    <glyph glyph-name="mima2" unicode="&#xe63d;" 
d="M857 366l-568 1q0 8 -0.5 40.5t-0.5 49t2.5 47t7 50t13.5 42t23 38.5q19 22 31 33.5t33.5 27t49.5 22t64 6.5q70 2 131.5 -49.5t91.5 -128.5q9 -23 18.5 -33.5t25.5 -11.5q21 0 33.5 9.5t15.5 24.5t1.5 29.5t-5.5 25.5q-87 223 -312 223q-79 0 -128 -19.5t-95 -69.5
q-22 -25 -39 -56.5t-25.5 -63t-14.5 -65.5t-7.5 -64t-2.5 -58.5t0 -48.5l-33 -1q-23 0 -39.5 -16.5t-16.5 -38.5v-468q0 -23 16.5 -39t39.5 -16h690q23 0 39.5 16t16.5 39v468q0 22 -16.5 38.5t-39.5 16.5v0v0zM825 -78q0 -19 -13 -32t-32 -13h-535q-18 0 -31 13
q-13 14 -13 32v312q0 19 13 32t31 13h535q19 0 32 -13t13 -32v-312v0zM825 -78z" />
    <glyph glyph-name="mima3" unicode="&#xe623;" 
d="M368 124q0 -13 9.5 -22.5t22.5 -9.5h224q13 0 22.5 9.5t9.5 22.5v192h-288v-192zM512 748q-91 0 -174 -35.5t-143 -95.5t-95.5 -143t-35.5 -174t35.5 -174t95.5 -143t143 -95.5t174 -35.5t174 35.5t143 95.5t95.5 143t35.5 174t-35.5 174t-95.5 143t-143 95.5t-174 35.5z
M688 124q0 -26 -19 -45t-45 -19h-224q-26 0 -45 19t-19 45v224h32v48q0 60 42 102t102 42t102 -42t42 -102h-32q0 46 -33 79t-79 33t-79 -33t-33 -79v-48h288v-224z" />
    <glyph glyph-name="zan1" unicode="&#xe646;" horiz-adv-x="1126" 
d="M1074 162q0 55 -36 79q12 6 24 32.5t12 51.5q-1 45 -41 74t-104 29h-229q29 80 24 175t-42 152q-36 57 -89 57q-86 0 -86 -107q0 -102 -30 -171q-14 -28 -67 -67t-106 -39h-153q-44 0 -72.5 -33.5t-28.5 -86.5l39 -416q8 -103 100 -103q32 -1 55 -1q19 0 30 1q19 0 50 23
q19 14 25 14q1 0 7 -3t17 -8t20 -9q43 -18 95 -18h319q78 0 118 28t40 79q0 25 -16 46q35 9 58 30t23 54q0 14 -5.5 30.5t-13.5 21.5q19 5 41 31t22 54v0zM272 -169h-88q-18 0 -32.5 15t-18.5 39l-40 433q0 25 18 46.5t43 21.5v0l150 -1q1 0 3.5 0.5t3.5 0.5v-530
q-9 -7 -18 -13q-16 -12 -21 -12v0zM971 106h-6v-39q22 -8 22 -40q0 -25 -26.5 -38t-60.5 -13v0l-1 -37q23 -5 22 -40q0 -68 -115 -68h-330q-29 0 -66 18q-7 3 -55 29v515q56 15 104 55.5t64 71.5q15 35 22 76.5t7 113.5q0 34 10 45t27 11q13 0 30.5 -12t28.5 -28
q32 -51 34 -138t-35 -167l-9 -36h293q40 -2 70 -18t30 -42l-1 -11q1 -1 0 -8.5t-5.5 -19t-12.5 -18.5q-6 -5 -12.5 -8t-9.5 -3l-3 -1v-38q17 -2 25 -8q20 -14 19 -45q-1 -18 -22 -38.5t-38 -20.5v0zM971 106z" />
    <glyph glyph-name="lipin" unicode="&#xe6c5;" 
d="M682 745v0q20 0 30 -9q8 -8 8 -22q0 -32 -32 -62q-22 -21 -54 -34.5t-59 -13.5h-7.5t-5.5 0.5l-2 0.5v0q-6 12 7 47.5t41 60.5q34 32 74 32zM682 812q-66 0 -120 -50q-47 -45 -64 -107.5t16 -97.5q21 -20 61 -20q39 0 83 18.5t75 47.5q46 42 53 95.5t-28 86.5
q-30 27 -76 27zM342 745q40 0 74 -32q28 -25 41.5 -60.5t7.5 -46.5q-5 -2 -16 -2q-27 0 -59 13.5t-54 34.5q-32 30 -32 62q0 15 8 22q10 9 30 9zM342 812q-46 0 -76 -27q-35 -33 -28 -86.5t53 -95.5q31 -29 75 -47.5t83 -18.5q40 0 61 20q33 35 16 97.5t-64 107.5
q-54 50 -120 50zM904 276v228q0 27 -19.5 46.5t-45.5 19.5h-294v-294h359zM545 210v-293h294q26 0 45.5 19t19.5 46v228h-359zM479 276v294h-294q-26 0 -45.5 -19.5t-19.5 -46.5v-228h359zM120 210v-228q0 -27 19.5 -46t45.5 -19h294v293h-359z" />
    <glyph glyph-name="m" unicode="&#xe638;" 
d="M275 557l-271 -573h193l221 447l-77 -448h156l312 429l-173 -429l171 -1l210 575l-258 -1l-237 -364l55 364z" />
    <glyph glyph-name="wodexinxi" unicode="&#xe62c;" 
d="M785 607h-410v-68h410v68zM785 334h-410v-68h410v68zM785 61h-410v-68h410v68zM307 334h-64v-68h64v68zM34 812v-1024h956v1024h-956zM922 -144h-820v888h825zM307 61h-64v-68h64v68zM307 607h-64v-68h64v68z" />
    <glyph glyph-name="boshi" unicode="&#xe627;" 
d="M512 650l-491 -175l98 -39v1l343 58v3q0 9 13 15t31 6t31 -6t13 -15t-13 -15t-31 -6t-30 6l-333 -57l369 -149l491 198zM143 224v0.5v0.5q-6 -3 -12 -3q-11 0 -19 8q6 -12 -5 -30t-29.5 -43.5t-24.5 -47.5q-8 -44 -1.5 -80.5t15.5 -41.5q6 -4 33.5 2.5t56 24t33.5 38.5
q-37 28 -54 85t7 87zM512 66q99 0 171 31t82 77v138l-253 -96l-250 95v-143q14 -44 85 -73t165 -29zM765 150q-10 -46 -82 -77.5t-171 -31.5q-94 0 -165 29.5t-85 72.5v-35q0 -2 -1 -5t-1 -5q0 -40 73.5 -68t179.5 -28q101 0 174.5 28.5t77.5 67.5v0v52zM114 414h26v-116
h-26v116z" />
    <glyph glyph-name="icon069" unicode="&#xe64f;" 
d="M336.5 263q-41.5 0 -71 29.5t-29.5 71t29.5 70.5t71 29t71 -29t29.5 -70.5t-29.5 -71t-71 -29.5zM336.5 426q-25.5 0 -44 -18.5t-18.5 -44.5t18.5 -44t44 -18t44 18t18.5 44t-18.5 44.5t-44 18.5zM471.5 127q-7.5 0 -13 5.5t-5.5 13.5q0 48 -34.5 82t-82 34t-81.5 -34
t-34 -82q0 -8 -6 -13.5t-13.5 -5.5t-13 5.5t-5.5 13.5q0 64 45 109t108.5 45t108.5 -45t45 -109q0 -8 -5.5 -13.5t-13 -5.5zM862 -67h-700q-40 0 -68.5 30t-28.5 72v506q0 42 28.5 72t68.5 30h291q8 0 13.5 -5.5t5.5 -13.5t-5.5 -13.5t-13.5 -5.5h-291q-24 0 -41.5 -19
t-17.5 -45v-506q0 -26 17.5 -45t41.5 -19h700q24 0 41.5 19t17.5 45v444q0 27 -17.5 45.5t-41.5 18.5h-356q-8 0 -13.5 5.5t-5.5 13.5t5.5 13.5t13.5 5.5h356q40 0 68.5 -30t28.5 -72v-444q0 -42 -28.5 -72t-68.5 -30zM832 345h-253q-8 0 -13.5 5.5t-5.5 13.5t5.5 13.5
t13.5 5.5h253q8 0 13.5 -5.5t5.5 -13.5t-5.5 -13.5t-13.5 -5.5zM832 238h-253q-8 0 -13.5 5.5t-5.5 13.5t5.5 13.5t13.5 5.5h253q8 0 13.5 -5.5t5.5 -13.5t-5.5 -13.5t-13.5 -5.5zM832 132h-253q-8 0 -13.5 5.5t-5.5 13.5t5.5 13.5t13.5 5.5h253q8 0 13.5 -5.5t5.5 -13.5
t-5.5 -13.5t-13.5 -5.5zM506 544q-8 0 -13.5 5.5t-5.5 12.5v6q0 15 -10 26t-24 11q-7 0 -13 5.5t-6 13.5t6 13.5t13 5.5q30 0 51 -22t21 -53v-6q0 -7 -5.5 -12.5t-13.5 -5.5z" />
    <glyph glyph-name="message" unicode="&#xe637;" 
d="M512 -36q-41 0 -84 7l-197 -119v199q-78 55 -123 135t-45 171q0 107 60 197.5t163.5 143t225.5 52.5t225.5 -52.5t163.5 -143t60 -197.5t-60 -197.5t-163.5 -143t-225.5 -52.5zM512 694q-107 0 -197.5 -45t-143 -122.5t-52.5 -169.5q0 -84 45 -156.5t123 -119.5l-2 -130
l132 80q48 -11 95 -11q107 0 197.5 45t143 123t52.5 169.5t-52.5 169t-143 122.5t-197.5 45zM736.5 301q-23.5 0 -40 16.5t-16.5 39.5t16.5 39.5t40 16.5t40 -16.5t16.5 -39.5t-16.5 -39.5t-40 -16.5zM512 301q-23 0 -39.5 16.5t-16.5 39.5t16.5 39.5t39.5 16.5t39.5 -16.5
t16.5 -39.5t-16.5 -39.5t-39.5 -16.5zM287.5 301q-23.5 0 -40 16.5t-16.5 39.5t16.5 39.5t40 16.5t40 -16.5t16.5 -39.5t-16.5 -39.5t-40 -16.5z" />
    <glyph glyph-name="m1" unicode="&#xe611;" 
d="M214 759h70h7q35 0 43.5 -7.5t21.5 -53.5l60 -197q3 -10 7.5 -25.5t5.5 -20.5t5 -13t6 -9.5t7.5 -4t11 -2.5h16.5h62h15.5t11.5 2.5t8 4t5.5 9.5t4.5 13t5.5 20.5t8.5 25.5l59 197q13 46 21.5 53.5t44.5 7.5h7h69h7q30 0 35 -6.5t5 -47.5v-4v-791q0 -11 -0.5 -18
t-0.5 -13.5t-1.5 -10.5t-1.5 -7.5t-3.5 -5t-4 -3t-6 -2t-7.5 -0.5h-9.5h-11.5h-33q-6 0 -10 0.5t-8 0.5t-6 1.5t-4 2t-2.5 3.5t-1.5 4.5t-1 7v8v10.5v12v402v4q0 43 -5 50t-36 7h-8h-47q-10 0 -14.5 -0.5t-10 -0.5t-7.5 -2.5t-5 -3t-4.5 -6t-3 -8t-4 -12t-4.5 -15.5l-29 -88
q-1 -4 -2.5 -8.5t-2 -6.5t-1.5 -5t-2 -3.5t-2 -2.5t-2.5 -2.5l-3 -1t-4 -0.5h-4.5h-7h-35q-17 0 -20 3t-11 27l-28 88q-2 6 -5 15.5t-4 12t-3 8t-4.5 6t-4.5 3t-8 2.5t-10.5 0.5t-14.5 0.5h-47h-7q-31 0 -36 -7t-5 -49v-5v-401v-13q0 -27 -4.5 -32.5t-28.5 -5.5h-34h-10
q-25 0 -30 8t-5 52v791v4q0 41 5 47.5t34 6.5h7v0z" />
    <glyph glyph-name="tubiao102" unicode="&#xe61a;" 
d="M674 677q53 -34 71.5 -60t9.5 -57t-48 -82q5 -4 12.5 -5.5t12 -1.5t13.5 0.5t13 1.5v0q27 0 38.5 0.5t29.5 -0.5t20.5 -4t13.5 -8.5t8.5 -14.5t4.5 -22t1.5 -31t-0.5 -41v-20q-1 -17 -8.5 -24.5t-24.5 -7.5q-187 1 -283 0q-19 0 -27 8.5t-7 27.5q1 29 0 94v7v7t-0.5 6
t-2 6t-3.5 4.5t-6 3t-9 0.5q-8 0 -12 -4.5t-5 -8.5t-1 -12.5v-10.5v-3.5v-3.5q-5 -91 -20.5 -106t-104.5 -15q-160 0 -175 -1q-29 -1 -40.5 11t-7.5 40q2 20 0 40q-6 46 13 67t66 16q4 -1 76 -1q-37 54 -43.5 86t13 58t75.5 61h27q49 -23 84 -52t59 -75q10 26 25 46t36 35.5
t36.5 24t42.5 21.5h27zM464 491q-19 83 -85 115q-20 11 -39 6t-30 -26q-18 -37 24 -62q68 -39 130 -33zM540 485q78 9 134 49q38 28 22 56q-22 39 -70 14q-59 -31 -86 -119zM484 -58q0 -7 -4.5 -11t-11.5 -4h-292q-6 0 -10.5 4t-4.5 11v304q0 6 4.5 10t10.5 4h292
q7 0 11.5 -4t4.5 -10v-304zM839 -58q0 -7 -4.5 -11t-11.5 -4h-292q-6 0 -10.5 4t-4.5 11v304q0 6 4.5 10t10.5 4h292q7 0 11.5 -4t4.5 -10v-304z" />
    <glyph glyph-name="xinxi1" unicode="&#xe6c9;" 
d="M721 432q-35 0 -59.5 -24.5t-24.5 -59t24.5 -59t59.5 -24.5t59.5 24.5t24.5 59t-24.5 59t-59.5 24.5zM511 432q-35 0 -59 -24.5t-24 -59t24 -59t59 -24.5t59.5 24.5t24.5 59t-24.5 59t-59.5 24.5zM302 432q-35 0 -59.5 -24.5t-24.5 -59t24.5 -59t59.5 -24.5t59.5 24.5
t24.5 59t-24.5 59t-59.5 24.5zM535 15q-19 0 -54 6.5t-39 6.5q-35 -43 -80 -71.5t-85 -38.5t-75.5 -13.5t-55 -2t-20.5 2.5q38 18 65.5 42t39 46.5t15.5 43.5t0.5 35t-11.5 18q-81 48 -126 117t-45 148q0 94 62.5 172.5t171 124.5t237.5 46q96 0 176.5 -27t134.5 -73.5
t83.5 -109t29.5 -133.5t-29.5 -133t-83.5 -108t-134.5 -72.5t-176.5 -26.5z" />
    <glyph glyph-name="iconfontlipinicon" unicode="&#xe61c;" 
d="M848 606h-151q26 15 46 33q45 43 52.5 96t-28.5 86q-29 27 -75 27q-66 0 -120 -50q-31 -28 -50 -69q-20 41 -51 69q-54 50 -120 50q-46 0 -75 -27q-36 -33 -28.5 -86t52.5 -96q20 -18 46 -33h-151q-27 0 -46 -19t-19 -46v-229h359v265q19 5 31 17l2 1l1 -1q12 -12 31 -17
v-265h359v229q0 27 -19 46t-46 19zM475 643v0q-5 -3 -17 -3q-26 0 -58 13.5t-54 34.5q-33 30 -33 63q0 14 8 21q10 10 30 10q40 0 75 -32q27 -26 40.5 -61t8.5 -46zM569 642v0q-6 12 7.5 47t40.5 61q35 32 75 32q20 0 30 -10q8 -7 8 -21q0 -33 -33 -63q-22 -21 -54 -34.5
t-58 -13.5q-4 0 -8 0.5t-6 1zM554 -47h294q27 0 46 19t19 46v229h-359v-294zM130 18q0 -27 19 -46t46 -19h294v294h-359v-229z" />
    <glyph glyph-name="shenglvehao" unicode="&#xe634;" 
d="M450 357q-11 -11 -27 -11q-17 0 -27.5 11t-10.5 26q0 17 11 28t27 11q15 0 26.5 -11.5t11.5 -27t-11 -26.5v0zM256 346q-17 0 -28 11t-11 26q0 17 11.5 28t27.5 11q15 0 26.5 -11.5t11.5 -27t-11 -26.5t-27 -11v0zM88 346q-15 0 -26 10.5t-11 26.5t11 27.5t27 11.5
q15 0 26.5 -11.5t11.5 -27.5q0 -15 -11 -26t-28 -11v0zM962 357q-11 -11 -27 -11q-17 0 -27.5 11t-10.5 26q0 17 11 28t27 11t27 -11.5t11 -27t-11 -26.5v0zM768 346q-17 0 -28 11t-11 26q0 16 11.5 27.5t27.5 11.5q15 0 26.5 -11.5t11.5 -27t-11 -26.5t-27 -11v0zM600 346
q-15 0 -26 11t-11 26q0 17 11 28t27 11q15 0 27 -11q11 -12 11 -28q0 -15 -11 -26t-28 -11v0z" />
    <glyph glyph-name="xinxi2" unicode="&#xe61d;" 
d="M131 107q-32 0 -55 23.5t-23 56.5v640l-27 -27h867q32 0 55 -23.5t23 -56.5v-640l27 27h-473h-8l-6 -5l-225 -151q-9 -6 -11.5 -16.5t3.5 -20t17 -11.5t20 4l225 151l-15 -5h473h26v27v640q0 55 -38.5 94t-92.5 39h-867h-26v-26v-640q0 -56 38.5 -95t92.5 -39h137
q11 0 18.5 8t7.5 19t-7.5 19t-18.5 8h-137zM368 453.5q0 44.5 -31 75.5t-74.5 31t-74 -31t-30.5 -75.5t30.5 -75.5t74 -31t74.5 31t31 75.5zM210 453q0 22 15.5 38t37 16t37 -16t15.5 -38t-15.5 -37.5t-37 -15.5t-37 15.5t-15.5 37.5zM630 453.5q0 44.5 -30.5 75.5t-74 31
t-74.5 -31t-31 -75.5t31 -75.5t74.5 -31t74 31t30.5 75.5zM473 453q0 22 15 38t37 16t37.5 -16t15.5 -38t-15.5 -37.5t-37.5 -15.5t-37 15.5t-15 37.5zM893 453.5q0 44.5 -31 75.5t-74.5 31t-74 -31t-30.5 -75.5t30.5 -75.5t74 -31t74.5 31t31 75.5zM735 453q0 22 15.5 38
t37 16t37 -16t15.5 -38t-15.5 -37.5t-37 -15.5t-37 15.5t-15.5 37.5z" />
    <glyph glyph-name="lipin1" unicode="&#xe633;" 
d="M903 663h-211q16 27 16 56q0 46 -33 78.5t-79 32.5q-50 0 -84 -38q-34 38 -84 38q-46 0 -79 -32.5t-33 -78.5q0 -29 16 -56h-211q-23 0 -39.5 -16.5t-16.5 -39.5v-56q0 -23 16.5 -39.5t39.5 -16.5v-447q0 -46 32.5 -78.5t79.5 -32.5h558q47 0 79.5 32.5t32.5 78.5v447
q23 0 39.5 16.5t16.5 39.5v56q0 23 -16.5 39.5t-39.5 16.5zM596 775q23 0 39.5 -16.5t16.5 -39.5t-16.5 -39.5t-39.5 -16.5t-39.5 16.5t-16.5 39.5t16.5 39.5t39.5 16.5zM428 775q23 0 39.5 -16.5t16.5 -39.5t-16.5 -39.5t-39.5 -16.5t-39.5 16.5t-16.5 39.5t16.5 39.5
t39.5 16.5zM484 -7h-251q-23 0 -39.5 16t-16.5 39v168h307v-223zM484 272h-307v223h307v-223zM847 48q0 -23 -16.5 -39t-39.5 -16h-251v223h307v-168zM847 272h-307v223h307v-223zM875 551h-726q-12 0 -20 8.5t-8 20t8 19.5t20 8h726q12 0 20 -8t8 -19.5t-8 -20t-20 -8.5z
" />
    <glyph glyph-name="yisheng" unicode="&#xe6b2;" 
d="M376 680h26v-14q0 -3 2 -7q2 -12 13 -12q7 0 11 6q7 5 7 13v14h20q7 0 11.5 5t4.5 12t-4.5 12t-11.5 5h-20v21q0 7 -5 12t-12 5t-11.5 -5t-4.5 -12v-21h-26q-7 0 -11.5 -5t-4.5 -12t4.5 -12t11.5 -5v0zM376 680zM760 75l-1 4q-35 85 -103.5 143t-154.5 78q53 37 84.5 112
t31.5 167q0 123 -55 212l-5 7l-7 3q-65 24 -136.5 24t-136.5 -24l-8 -3l-4 -7q-55 -89 -55 -212q0 -95 33 -171t88 -112q-80 -22 -143.5 -79t-97.5 -138l-1 -4q-14 -59 12 -96q21 -28 62 -31q47 -3 261 -7h1h1q213 4 260 7q40 3 61 31q27 37 13 96v0zM286 770q127 43 255 0
q44 -76 49 -184q-178 35 -353 0q5 107 49 184v0zM239 563q35 8 76.5 13t120.5 4t152 -16q-8 -110 -58 -186t-116.5 -76t-116.5 76t-58 185v0zM730 -1q-9 -12 -29 -13q-49 -3 -276 -7v-25l-1 25q-227 4 -276 7q-21 1 -29 13q-15 20 -6 60q41 97 124.5 155t183.5 58h3h2h2
q100 0 183.5 -58t123.5 -155q10 -40 -5 -60v0zM730 -1zM936 84q-11 33 -28 61.5t-32.5 46t-39.5 35.5t-37 25.5t-36 20.5q-16 9 -23 13q-10 6 -29 14q-11 6 -15 8q34 51 57.5 106t33 94t13 77t3.5 51.5t-1 21.5q-2 33 -17.5 58.5t-38.5 40t-44.5 22.5t-41.5 10l-15 1l-3 -30
l15 -2q6 -1 14 -2t26.5 -8t33 -17t26.5 -30t14 -46q3 -35 -5 -87q-38 15 -96 18l-2 -31q63 -3 92 -18q-24 -117 -96 -220l-1 -3q-1 -6 -2 -9.5t3 -8.5t5.5 -7.5t8 -6t10 -5.5t10.5 -5q18 -8 26 -13t25 -14q27 -15 43 -25t41 -30.5t43 -49t30 -64.5q7 -43 -3 -55q-2 -3 -9 -4
q-31 -2 -48 -2l1 -31q28 1 49 2q20 2 32 16q18 22 8 82v0zM936 84z" />
    <glyph glyph-name="yisheng1" unicode="&#xe6a4;" 
d="M376 680h26v-14q0 -3 2 -7q2 -12 13 -12q7 0 11 6q7 5 7 13v14h20q7 0 11.5 5t4.5 12t-4.5 12t-11.5 5h-20v21q0 7 -5 12t-12 5t-11.5 -5t-4.5 -12v-21h-26q-7 0 -11.5 -5t-4.5 -12t4.5 -12t11.5 -5v0zM376 680zM760 75l-1 4q-35 85 -103.5 143t-154.5 78q53 37 84.5 112
t31.5 167q0 123 -55 212l-5 7l-7 3q-65 24 -136.5 24t-136.5 -24l-8 -3l-4 -7q-55 -89 -55 -212q0 -95 33 -171t88 -112q-80 -22 -143.5 -79t-97.5 -138l-1 -4q-14 -59 12 -96q21 -28 62 -31q47 -3 261 -7h1h1q213 4 260 7q40 3 61 31q27 37 13 96v0zM286 770q127 43 255 0
q44 -76 49 -184q-178 35 -353 0q5 107 49 184v0zM239 563q35 8 76.5 13t120.5 4t152 -16q-8 -110 -58 -186t-116.5 -76t-116.5 76t-58 185v0zM730 -1q-9 -12 -29 -13q-49 -3 -276 -7v-25l-1 25q-227 4 -276 7q-21 1 -29 13q-15 20 -6 60q41 97 124.5 155t183.5 58h3h2h2
q100 0 183.5 -58t123.5 -155q10 -40 -5 -60v0zM730 -1zM936 84q-11 33 -28 61.5t-32.5 46t-39.5 35.5t-37 25.5t-36 20.5q-16 9 -23 13q-10 6 -29 14q-11 6 -15 8q34 51 57.5 106t33 94t13 77t3.5 51.5t-1 21.5q-2 33 -17.5 58.5t-38.5 40t-44.5 22.5t-41.5 10l-15 1l-3 -30
l15 -2q6 -1 14 -2t26.5 -8t33 -17t26.5 -30t14 -46q3 -35 -5 -87q-38 15 -96 18l-2 -31q63 -3 92 -18q-24 -117 -96 -220l-1 -3q-1 -6 -2 -9.5t3 -8.5t5.5 -7.5t8 -6t10 -5.5t10.5 -5q18 -8 26 -13t25 -14q27 -15 43 -25t41 -30.5t43 -49t30 -64.5q7 -43 -3 -55q-2 -3 -9 -4
q-31 -2 -48 -2l1 -31q28 1 49 2q20 2 32 16q18 22 8 82v0zM936 84z" />
    <glyph glyph-name="bottom01" unicode="&#xe61e;" 
d="M933 591h-79l-342 -342l-342 342h-101l443 -443l444 443h-23z" />
    <glyph glyph-name="eclips-horizonal-copy" unicode="&#xe620;" 
d="M254 170q0 -22 15.5 -38t37.5 -16t37.5 16t15.5 38t-15.5 37.5t-37.5 15.5t-37.5 -15.5t-15.5 -37.5v0zM471 170v0q0 -22 15.5 -38t37.5 -16t37.5 16t15.5 38v0q0 22 -15.5 37.5t-37.5 15.5t-37.5 -15.5t-15.5 -37.5zM688 170q0 -22 15.5 -38t37.5 -16t38 16t16 38
t-16 37.5t-38 15.5t-37.5 -15.5t-15.5 -37.5z" />
    <glyph glyph-name="changge" unicode="&#xe895;" 
d="M780 80q-59 -16 -104 22l-306 255q-5 5 -7 11q-6 -5 -22 -5v0q-97 0 -165.5 68.5t-68.5 166t68.5 166t166 68.5t166 -68.5t68.5 -166.5q0 -11 -1 -23q4 -2 6 -6l256 -305q26 -31 26 -73t-25 -73l-0.5 -2.5t-1.5 -5.5t-1 -4q-34 -119 -151 -143q-78 -16 -224 12
q-20 3 -52 10q-90 19 -139 25t-79 1t-47 -22q-6 -7 -15 -7t-15 6.5t-6 15t6 14.5q40 42 132 37q49 -3 172 -28q31 -7 51 -11q131 -26 206 -12.5t106 77.5v0zM416 375l287 -241q21 -17 49.5 -16t47.5 20.5t20.5 48t-16.5 49.5l-240 287q-19 -56 -62 -96.5t-100 -55.5z
M341.5 405q79.5 0 135.5 56.5t56 136t-56 135.5t-135.5 56t-136 -56t-56.5 -135.5t56.5 -136t136 -56.5zM526 382l30 31l91 -91l-30 -30z" />
    <glyph glyph-name="changge1" unicode="&#xe63e;" 
d="M842 33q-29 -9 -60.5 -2.5t-55.5 26.5l-342 286q-4 4 -6 8q-13 -2 -27 -2q-108 0 -185 77t-77 186t77 186t185.5 77t185.5 -77t77 -186q0 -13 -1 -26q4 -3 7 -6l286 -342q29 -35 29 -82t-28 -82l-0.5 -2.5t-1.5 -6t-1 -4.5q-38 -133 -169 -160q-87 -18 -251 13l-58 12
q-101 20 -156 27t-88 2t-52 -25q-7 -8 -18 -8q-9 0 -16 7t-7 17t6 17v0q46 47 148 41q55 -3 193 -32q34 -7 57 -11q147 -30 231 -14.5t118 86.5v0zM435 363l321 -269q23 -20 55 -18.5t53.5 23t23 53.5t-17.5 55l-270 322q-17 -52 -65.5 -100.5t-99.5 -65.5zM351 397
q89 0 152 63t63 152t-63 152t-152 63t-152 -63t-63 -152t63 -152t152 -63zM558 372l34 33l101 -101l-34 -34z" />
    <glyph glyph-name="bulldozer__ea" unicode="&#xe600;" 
d="M512 896q104 0 199 -40.5t163.5 -109t109 -163.5t40.5 -199t-40.5 -199t-109 -163.5t-163.5 -109t-199 -40.5t-199 40.5t-163.5 109t-109 163.5t-40.5 199t40.5 199t109 163.5t163.5 109t199 40.5zM10 484h1004q10 -49 10 -100v0q0 -104 -40.5 -199t-109 -163.5
t-163.5 -109t-199 -40.5t-199 40.5t-163.5 109t-109 163.5t-40.5 199q0 51 10 100zM18 248l12 -5l-1 12l21 -12l-1 12l10 10l1 2l17 -14l5 10l7 3l1 4l3 -3l7 3l7 -15l4 2l6 4v0l1 1l4 1l-4 -1l-6 2l-5 1l-13 3l2 3l1 -2l8 1l3 -16h1l7 7l3 -5h4l6 9l13 -10l6 15l2 -5l13 10
l-5 -32l13 10l12 -4l8 1h3v0h1l25 1h3l1 1l-1 -1h-3l-25 -1h-1h1l26 1h2h1h783q-45 -165 -182 -272t-313 -107q-175 0 -312 106t-182 270zM12 486l1002 -2q-13 66 -43 126v0h-12q0 17 -1 18h-18q0 15 2 33q-13 21 -28 40q-11 -1 -23 0l-2 -3l-23 4q7 -39 6 -43q-1 0 -4 -1.5
t-4 -1.5q-1 -2 -3 -2q-1 -1 -1 -4v-5q0 -1 1 -3q0 -2 -4 -3q-1 1 -1.5 24t0 49.5t0.5 29.5h-19l7 16q-3 2 -24 3q-1 30 -3 33l-3 -33q-18 0 -25 -3l7 -16h-19v-147q-2 0 -3.5 1t-1.5 3h0.5t0.5 1l-1 2q0 1 0.5 1.5t-0.5 1.5v4q0 1 0.5 2t-0.5 3v1h1v2l-1 1q0 1 0.5 1t0.5 2
v0q-1 0 -1 2v0l1 2l-2 2q-1 0 -3.5 0.5t-4.5 0.5h-0.5t-2.5 1h-6q2 28 -1 38q-3 6 -6 11t-7 10.5t-7 10.5l-6 -2l-4 6q-1 -1 -9 -3t-10 -3l-2 22l-3 -23q-4 -2 -10.5 -3.5t-10.5 -3.5t-6 -6t-7 -5v55q-3 0 -6.5 -1.5t-5.5 -1.5q-1 3 -1 18.5t-2 18.5l-2 -39q-41 -11 -44 -16
q-1 -4 -1 -15t0.5 -27t0.5 -19h-7q0 -3 -3 -2q-1 0 -1 -3q-1 0 -0.5 -1.5t0.5 -2.5l-2 -2t-1 -4q0 -2 -1.5 -3.5t-1.5 -2.5v-2t-1 -1h-1q-2 1 -2 20.5t0.5 42t0.5 26.5h-1.5h-1.5l-2 14q-2 1 -3 1h-3v15h-8v5h-14l-1 19q-1 -16 -2 -19h-12v-5h-8v-30q-3 0 -4 -1v-67
q0 -6 -1 -7q0 -1 -2 -1t-2 3v2q-1 1 -3 2q-6 3 -12 1l-1 -1h-1q-2 -2 -2 -4v-3h-10l1 -4v0v-1v-1q-1 0 -1 -1v-10v-14q0 -3 -2 -5l-1 1q-2 0 -2 3v5v8l-5 1q1 4 1 7t-1.5 5t-5 3.5t-10.5 3.5q-5 -2 -16 -7q-1 -1 -1 -3v-4.5v-3.5l-4 -1q-3 -2 -12 -1v8h-14v22h-22v-10
q-7 0 -11 -2q0 -1 -1 -1t-2 -1q0 -6 -1 -7l-2 -2v-1.5v-2.5q0 -2 -1 -2.5t-1 -2v-8.5l-1 1v0.5t-0.5 0.5h-0.5v0v2h-17v-5l-10 -1q1 1 1 13v2q1 0 0 0q-2 1 -3 1l2 1l1 1v0v0l-1 2l1 1q-1 1 -3 1l3 2l-3 2q2 0 3 1l-1 1l-2 1q2 0 3 1l-1 1h-1l-0.5 0.5l-0.5 0.5l3 1l-3 2
q3 0 3 1q-2 1 -3.5 2.5t-3.5 2.5l-0.5 0.5l-0.5 0.5l-6 3h-0.5h-0.5h-3h-2t-2 -1l-1 -1l-1 -1q-26 -2 -32 -4l-4 -2q1 0 1.5 -0.5t0.5 -1.5l-2 -1l3 -1q-1 -1 -2 -1t-1 -1l2 -2v0q-1 0 -2 -1q2 -2 1 -3v0v-4q1 0 2 -1v0q-1 0 -3 -1q1 -1 1.5 -1t1.5 -1l-2 -1h-1l1 -1h0.5
h0.5v-4v0v0v0v-3v0l-1 -8l1 -1v0v0l-1 -0.5t-1 -1.5h2l1 -1v0l-3 -2l2 -1h1q-1 -1 -2 -1l-1 -1h-1v0q-1 15 0 17h-1q-1 0 -6 3l1 2h0.5h0.5v3q-1 0 -4 2q3 1 4 1l-1 1v0l-1 1q1 1 2 1l-4 2l4 1l-2 2q1 1 2 1l-1 1l-3 1l2 2l-2 1h1l3 1l-4 2l4 1l-4 2q2 1 4 1l-3 2v0h-1
q2 1 4 1l-4 2q3 1 4 1v0q-1 0 -1 1q-13 0 -18 2q-1 1 -7 1q-9 1 -13 1v15h-5h-1l-1 16q-1 2 -2 2t-3 1q-2 2 -5 3t-7 2.5t-7 2.5q-9 -2 -21 -9v0l-3 -1v-16q-1 0 -3 -1h-2h-2v-39l-6 -1q-1 -2 -0.5 -9.5t-0.5 -9.5q0 -1 -2 -1h-2t-1 2q1 2 1 4q0 1 -0.5 6.5t-0.5 9.5t2 6h-1
q-1 -1 -2 2t0 5q0 1 1 2t-3 3v1l-15 12v0l-10 -9h-33q0 -1 0.5 -7t-1.5 -6q-2 -2 -2 -6v-6q0 -1 -4 -2v-29h-5l-1 1v1q-1 0 -2 1t-2 0.5t-1 3.5q-6 0 -7 1v25h-13q0 2 -2 5q-17 -30 -33.5 -74t-23.5 -78zM78 112h868q-69 -110 -184 -175t-250 -65t-250 65t-184 175z
M342.5 57q9.5 0 16 -4.5t6.5 -11t-6.5 -11t-16 -4.5t-16.5 4.5t-7 11t7 11t16.5 4.5zM827 87q9 0 9 -9t-9 -9t-9 9t9 9zM654.5 89q6.5 0 6.5 -1.5t-6.5 -1.5t-6.5 1.5t6.5 1.5zM572.5 83q15.5 0 15.5 -7.5t-15.5 -7.5t-15.5 7.5t15.5 7.5zM412 67q7 0 7 -3.5t-7 -3.5t-7 3.5
t7 3.5zM288 -24q7 0 7 -3t-7 -3t-7 3t7 3zM223.5 67q13.5 0 13.5 -9t-13.5 -9t-13.5 9t13.5 9zM804 64q7 0 12 -4t5 -10.5t-5 -11t-12 -4.5t-12 4.5t-5 11t5 10.5t12 4zM598 -50q14 0 14 -4.5t-14 -4.5t-14 4.5t14 4.5zM767.5 19q0.5 0 0.5 -6.5t-0.5 -6.5t-0.5 6.5t0.5 6.5
zM704 46q9 0 16 -5t7 -12.5t-7 -13t-16 -5.5t-15.5 5.5t-6.5 13t6.5 12.5t15.5 5zM628 32q14 0 14 -8t-14 -8t-14 8t14 8zM576 -7q8 0 8 -3.5t-8 -3.5t-8 3.5t8 3.5zM385 -25v0q5 0 8 -3t3 -8v0q0 -4 -3 -7t-8 -3v0v0q-4 0 -7 3t-3 7v0v0q0 5 3 8t7 3v0zM486 16q8 0 8 -20
t-8 -20t-8 20t8 20zM502 77q6 0 10.5 -5t4.5 -11.5t-4.5 -11t-10.5 -4.5t-10 4.5t-4 11t4 11.5t10 5zM155 559q0 -1 -1 -2l2 -1v-2l-1 1l-1 -2v-1h-1l-1 -1v0h1v-1h-1v-1l-2 -2q-1 -6 -7 -3q-1 -1 -3 -1h-1q-3 0 -5 2h-3l-1 2h-3v3l1 2v0q-4 0 -4 2q-1 1 -2 1q-4 -1 -7 -2
h-3q-8 0 -14 4l-7 1l-2 5q-3 -5 -7 -2l-3 -2q0 -5 -6 -3h-3l-1 -1q-3 0 -6 2h-3l-1 2h-3l1 3v2l-3 4v4q-1 0 -1 1h-1q-3 0 -5 1h-3l-1 3l-3 -1v3l1 2l-1 1l8 20h1h2v0q-1 1 -1 3q9 18 19 36l4 -2l4 5l7 -3q3 4 6 4l3 5l4 2h5l3 3l5 -2l7 1q4 1 6.5 0.5t2.5 -2.5l1 -2
q2 3 6 -3q2 -2 0 -5l2 -2q3 3 5.5 3.5t3.5 -1.5l1 -2q5 2 8 1t4 -3v-3q3 4 9 -4l-2 -8l-1 -4q2 -2 -1 -5l4 -1v-4l-2 1q-3 -1 -3 -2l7 -4q1 2 5 -3l-1 -5l-1 -3q2 -2 0 -4h3v-3l-2 1q-1 -1 -2 -1l3 -4q1 2 4 -2l-1 -4v-2q1 -2 -1 -3h3l-1 -3l-1 1l-1 -2l1 -1h-1l-1 -1v0h1
v-1h-1v-1q1 -1 -0.5 -1.5t-2.5 -0.5v0q-1 -6 -6 -3q-2 -1 -3 -1h-1q-3 0 -6 2v0zM108 478q-1 3 0 11l-2 27q-1 10 1 13q19 18 23 19q3 25 6 26l-3 2q-3 -24 -6 -27l-7 37l-2 -1l4 -36l-6 -6q-1 1 -3 -3q-1 1 -2.5 3t-4 12t0.5 27l-4 3l-4 -24l2 -5l4 -16l-4 -4l-7 14v2.5
t-1 5t-1.5 6.5t0 6t1.5 4l-2 2v-18l-2.5 2.5t-5 4.5t-4.5 3v-2l4 -1q3 -3 7 -9q7 -19 7 -23v-13q6 -30 -4 -39zM956 534q0 -1 -1 -1l2 -1v-1h-1l-1 -1v-1v0l-1 -1v0v0h1l-1 -1v0l-2 -2q-1 -5 -5 -3h-3h-1q-2 0 -4 1h-2l-1 2h-2v2v2q-2 0 -2 2q-1 0 -2 1q-4 -2 -8 -2
q-6 0 -11 3h-5l-2 5q-2 -4 -5 -2l-3 -2q0 -4 -5 -2h-2h-1q-2 0 -4 1h-2l-1 2l-3 -1l1 3v1l-3 3v4v0h-1q-2 0 -4 1l-2 1l-1 1h-3l1 2v2l-3 3v3v2l2 1l1 4l2 1h3l2 2h1v0v4v2q-1 1 0 1l1 6v4l3 3q-2 3 -1.5 4.5t2.5 2.5h1l5 2l6 1l4 3l5 -2q3 3 5 3l2 4l3 1l5 1l2 2l3 -1h6
q3 1 5 0.5t2 -2.5l1 -1q1 2 5 -3q1 -1 -1 -3l2 -2h8q4 2 6 1t3 -3l1 -2q2 3 6 -3l-1 -6l-1 -3q2 -2 -1 -5h4v-3l-2 1v0q-2 -1 -2 -2l5 -3q1 1 4 -3l-1 -4v-2q1 -2 -1 -3h3v-3l-2 1q-1 0 -1 -1l2 -2q1 1 3 -2v-3l-1 -2q1 -1 0 -2l2 -1v-1h-1v0l-1 -1v-1v0l-1 -1v0v0v0v-1v0
l-2 -2q-1 -5 -6 -2q-1 -1 -2 -1h-1q-2 0 -4 1v0zM919 471q-1 2 0 8l-2 21q0 8 1 10q15 15 18 16q2 19 5 20l-3 1q-2 -18 -4 -21l-6 30l-1 -1l3 -28l-5 -5q-1 0 -2 -3q-1 1 -2 3t-3 9.5t1 20.5l-4 2l-3 -18l1 -4l3 -12l-3 -4l-5 11v2t-0.5 4t-1 5.5t-0.5 4.5t1 3l-1 1v-14
q-8 9 -10 9v-2l5 -3q2 -2 4 -5q5 -15 5 -18v-10q5 -24 -3 -31zM470 593h198q14 0 21 -25l37 -125l191 -41q20 -4 30 -10.5t17 -27t7 -58.5v-74h-61v7q0 45 -32 77t-77.5 32t-77.5 -32t-32 -77q0 -3 1 -7h-230q3 15 3 30t-3 30q-6 41 -44 75l31 201q4 25 21 25zM971 277v-45
h-61v7q0 45 -32 77t-77.5 32t-77.5 -32t-32 -77q0 -3 1 -7h-230q3 15 3 30t-3 30q-6 41 -44 75l31 201l2 10zM795 399q0 -7 -11 -7t-11 7v157q0 9 12 14.5t22 3.5v-24q-12 2 -12 -4v-147zM971 293v-61h-61v7q0 29 -14 54h75zM706 293q-15 -25 -15 -54q0 -3 1 -7h-26v61h40z
M305.5 394q-54.5 0 -93 -38.5t-38.5 -93t38.5 -93t93 -38.5t93 38.5t38.5 93t-38.5 93t-93 38.5zM306 384q-50 0 -85.5 -35.5t-35.5 -85.5t35.5 -85.5t85.5 -35.5t85.5 35.5t35.5 85.5t-35.5 85.5t-85.5 35.5zM185 262q0 -50 35.5 -85t85.5 -35t85.5 35t35.5 85h-242z
M325 293h381q-15 -25 -15 -54q0 -3 1 -7h-367q-12 0 -21 9t-9 21.5t9 21.5t21 9zM151 306h297v-84h-297v84zM793 333q-4 0 -9 -1l-3 6q-1 3 -4 2l-5 -1q-2 -1 -2 -4v-6q-4 -2 -9 -4l-4 5q-2 2 -4 1l-5 -3q-2 -1 -1 -4l2 -6q-4 -2 -8 -5l-5 3q-3 2 -4 0l-4 -3q-2 -2 0 -5
l3 -5q-4 -4 -6 -8l-6 3q-3 1 -4 -1l-3 -5q-2 -2 1 -4l4 -5l-4 -8h-6q-3 1 -4 -2l-2 -5q-1 -2 2 -4l5 -3q-1 -4 -1 -9l-6 -1q-3 -1 -4 -3v-5q0 -3 3 -4l6 -2v-9l-5 -2q-3 -2 -3 -4l1 -5q1 -3 4 -3h6q1 -5 3 -9l-5 -4q-2 -2 -1 -4l2 -5q1 -2 4 -1l6 1q3 -4 5 -8l-3 -5
q-2 -2 -1 -4l3 -4q2 -2 5 -1l5 3q4 -3 7 -7l-2 -5q-1 -3 1 -5l4 -3q2 -1 4 1l5 4q4 -2 8 -5l-1 -5q0 -4 2 -5l5 -2q2 -1 4 2l4 5q4 -1 9 -2v-6q1 -3 3 -4h5q3 -1 4 2l2 6h4.5h4.5l2 -6q2 -3 4 -2h5q3 1 3 4l1 6q4 1 9 2l3 -5q2 -3 4 -2l5 2q3 1 2 5l-1 6l8 4l5 -4q2 -2 5 -1
l4 3q2 2 1 5l-3 6q4 3 7 6l5 -3q3 -1 5 1l3 4q2 2 0 4l-4 5q3 4 5 8l6 -1q3 -1 4 1l3 5q1 2 -2 4l-5 4q2 4 3 9h6q4 0 4 3l1 5q1 2 -3 4l-5 2q0 5 1 10l5 1q4 1 3 4v5q0 2 -3 3l-6 1q-1 5 -2 9l5 3q3 2 2 4l-1 5q-1 3 -5 2h-6q-1 4 -4 8l5 5q2 2 1 4l-3 5q-2 2 -5 1l-5 -2
q-3 3 -6 7l3 5q1 3 0 5l-4 3q-2 2 -5 0l-5 -3q-3 3 -7 5l1 6q1 3 -1 4l-5 3q-2 1 -4 -1l-4 -5q-4 2 -9 4v6q1 3 -2 4l-5 1q-3 1 -4 -2l-3 -6q-4 1 -9 1l-2 6q0 4 -3 4h-5q-3 0 -3 -4zM800.5 295q-23.5 0 -40 -16.5t-16.5 -39.5t16.5 -39.5t40 -16.5t40 16.5t16.5 39.5
t-16.5 39.5t-40 16.5zM444 600h247v-22h-247v22zM478 563h76q11 0 11 -10v-128q0 -7 -10 -7h-99q-5 0 -8.5 3t-2.5 7l20 125q2 10 13 10zM474 557q0 -1 -1 -2l-22 -131h1h106v0l1 132v0.5t-1 0.5h-84zM457 458l102 85v13v0.5t-1 0.5h-36l-56 -48zM455 448l-2 -14l106 89v12z
M660 563h-77q-11 0 -11 -10l1 -128q0 -7 9 -7h100q5 0 8 3t3 7l-21 125q-1 10 -12 10zM664 557v-2l23 -131h-1h-106h-1v132v0.5v0.5h85zM579 455l90 70l-5 30v2h-9l-76 -58v-44zM670 518l2 -11l-93 -72v12zM157 301h285v-75h-285v75zM442 264v-38h-285v38h285zM303 279
q6 0 10.5 -4.5t4.5 -10.5t-4.5 -10.5t-10.5 -4.5t-10.5 4.5t-4.5 10.5v0q0 6 4.5 10.5t10.5 4.5v0zM303 275v0q5 0 8 -3t3 -8v0q0 -5 -3 -8.5t-8 -3.5v0q-5 0 -8.5 3.5t-3.5 8.5v0q0 5 3.5 8t8.5 3v0zM321 820q10 0 18 -4q10 9 23 9v0q11 0 20 -7t11 -18q13 -4 17 -15h3
q10 0 17.5 -7.5t7.5 -18t-7.5 -18t-17.5 -7.5q-7 0 -12 3q-6 -19 -25 -19v0q-11 0 -18 8q-8 -8 -18 -8v0v0q-10 0 -18 7q-7 -8 -19 -8v0v0q-10 0 -18 7q-3 -1 -6 -1q-13 0 -22 9t-9 22t9 21.5t22 8.5h3q1 15 12.5 25.5t26.5 10.5zM238 539q1 0 0 -1h2l-1 -2h-1v-1v-1h-1v0v0
v0v-1v0v-1l-2 -2q-1 -4 -5 -2h-2h-1q-3 0 -4 1h-3v2l-3 -1l1 3v1q-3 1 -3 2q-1 0 -2 1q-2 -1 -5 -2h-2q-6 0 -10 4h-6l-2 4q-2 -4 -5 -2l-2 -1q-1 -4 -5 -2q-1 -1 -2 -1h-1q-2 0 -4 1h-2l-1 2h-2v2v2l-2 2v4h-1h-1q-2 0 -4 1l-2 1l-1 1h-2v2l1 2l-3 2v4v2l1 1l1 4h2l3 1l2 1
q1 1 1 0v1v3v2v1l1 6v4l3 2q-2 4 -1 5.5t2 1.5l2 1q1 2 4 1l6 1l3 3l6 -2q2 3 4 4l3 3l2 1l5 1l2 2l3 -1h6l7 -3q2 2 5 -2q1 -2 0 -4l2 -2l7 1q4 1 6 0.5t3 -2.5l1 -2q2 3 6 -3l-1 -6l-1 -4q2 -1 -1 -3l3 -1v-3l-2 1q-2 -1 -2 -2l5 -3q2 2 5 -2l-1 -4l-1 -3q1 -1 0 -2l2 -1
v-2l-1 1q-1 -1 -2 -1l2 -2q1 1 4 -2l-1 -3l-1 -2q1 -1 0 -2h2v-2h-1v0l-1 -1l1 -1h-1h-1v-1h1v0h-1v-1l-2 -2q-1 -4 -5 -2q-1 -1 -2 -1h-1q-2 0 -4 1h-1zM203 478q-1 2 0 8l-2 21q0 7 1 9q15 15 18 16q2 18 4 19l-2 1q-3 -17 -4 -20l-6 28h-1l2 -28l-4 -4q-1 0 -2 -3
q-1 1 -2 2.5t-3 9.5t0 20l-3 2l-3 -17l1 -5l3 -12l-3 -3l-4 11q-1 0 -1 1.5t-0.5 4l-1 5t0 4.5t0.5 3l-1 1v-13l-9 8v-2l4 -2q2 -2 4 -6q5 -14 6 -17l-1 -10q5 -23 -2 -30zM456.5 834q21.5 0 37 -15t15.5 -37t-15.5 -37.5t-37 -15.5t-37 15.5t-15.5 37.5t15.5 37t37 15z
M679 759h16q2 0 9.5 -3.5t12.5 -3.5q6 0 6 2q-5 -1 -6 4q-2 4 12 13q12 9 9 16q-2 -2 -9 -6q-3 -2 -6 -4.5t-6.5 -6t-4.5 -5.5q-6 -5 -11 -4q-16 3 -22 -2zM635 789l16 1q3 -1 10.5 -4t11.5 -4q6 1 6 3q-5 -1 -6 3t13 14q11 8 8 16q-1 -3 -8 -6q-3 -2 -6 -4.5t-6.5 -6
l-5.5 -5.5q-6 -5 -11 -4q-16 3 -22 -3z" />
    <glyph glyph-name="boat__easyico" unicode="&#xe601;" 
d="M512 896q139 0 257 -68.5t186.5 -186.5t68.5 -257t-68.5 -257t-186.5 -186.5t-257 -68.5t-257 68.5t-186.5 186.5t-68.5 257t68.5 257t186.5 186.5t257 68.5zM219.5 655q-88.5 0 -150.5 -62.5t-62 -151t62 -151t150.5 -62.5t151 62.5t62.5 151t-62.5 151t-151 62.5z
M821 384q-30 -8 -85 -29.5t-108 -34t-116 -12.5q-107 -1 -228 33q-155 44 -284 38q2 -151 84 -276h61h105h690q84 127 84 281h-203zM733 384q-25 -7 -81 -28.5t-106.5 -33.5t-111.5 -12q-108 0 -229 34q-111 31 -205 36q1 -150 83 -275h62h100h696q83 127 83 279h-291z
M817 270l8 1l-28 223l-7 -1zM805 434q64 -55 83 -119l-99 -12q12 7 20 24.5t9 45t-13 61.5zM817 381q1 0 3 1q-2 -1 -3 -2v1zM818 374l1 -1h-1v0v1zM790 493q-39 -55 -59.5 -103.5t-18.5 -104.5l153 19q-32 8 -59.5 64.5t-15.5 124.5zM825 241l18 -24l19 2l-4 32q27 8 58 24
l8 -25l6 1l-3 29l-3 18l-211 -26q34 -47 112 -31zM776 240zM771 261v-1v1zM772 247v0v0zM771 245h-1h1zM770 262zM769 272l1 -1zM770 271q1 0 2 -1q-1 1 -2 1zM768 263zM772 270zM779 243zM772 248zM780 246zM775 268zM769 244v0v0zM777 266q1 -1 1 -2q0 1 -1 2zM775 268z
M767 264zM771 246v0v0zM776 267zM777 241zM774 238zM775 239zM780 245q0 -1 -1 -2q1 1 1 2zM777 241zM925 292l-207 -26q-3 3 -5 6l211 26zM925 292l-207 -26q3 -4 7 -8l201 25zM912 273l-177 -22q-5 3 -10 7l201 25l1 -3q-7 -4 -15 -7zM912 273l-177 -22q7 -4 14 -7l136 16
q14 6 27 13zM859 248l-86 -10q-13 1 -24 6l136 16q-13 -5 -27 -9zM882 332q-6 -3 -12 -4q-15 -2 -26.5 7t-13.5 24q-3 22 16 34q23 -29 36 -61zM757 443l32 -19q7 -42 28 -77l-84 48q9 23 24 48zM723 368q-5 -16 -8 -33l71 -41l56 7zM1010 264q-60 -1 -150 -11.5t-152 -16
t-164.5 6.5t-217.5 47q-175 55 -323 35q14 -119 80 -220h62h100h696q48 74 69 159zM985 189q-78 -11 -196.5 -2.5t-311.5 41.5q-66 11 -120 15t-105 -0.5t-81 -9.5t-86 -17q-23 -5 -53 -9q20 -56 53 -106h59h109h686q27 41 46 88zM422 207l13 -1l51 408l-13 1zM473 504
q88 -126 94 -247l-181 23q39 11 69 73t18 151zM472 406q1 -1 3 -1q-2 -1 -4 -1zM469 392l0.5 -0.5t0.5 -1.5l-0.5 0.5t-1.5 0.5zM473 615q-94 -79 -152.5 -156t-80.5 -177l282 -36q-32 18 -56 73.5t-27 133t34 162.5zM422 153l21 -52l36 -4l7 58q51 4 113 16l4 -46l10 -1
l7 52l4 33l-387 49q39 -98 185 -105zM335 172zM335 212v0v0zM330 187v0v0zM327 185zM333 215zM336 233q2 -1 2 -2q0 1 -2 2zM339 231q1 -1 1 -2q0 1 -1 2zM331 217zM340 229zM342 178zM332 189zM345 182q0 -1 -1 -2q1 1 1 2zM346 223zM324 183v0v0zM349 218v-2v2zM346 223z
M329 219zM328 186v0v0zM347 220zM338 174zM330 169zM333 171zM343 179l-1 -1zM338 174zM623 198l-380 48l-6 12l387 -49zM623 198l-380 48q4 -9 10 -18l368 -46zM592 170l-325 41q-8 8 -14 17l368 -46l-1 -6zM592 170l-325 41q10 -11 21 -19l249 -32q26 4 55 10zM485 151
l-157 20q-22 8 -40 21l249 -32q-27 -3 -51 -5zM565 288q-8 -2 -16 -2q-5 0 -9 1q-26 3 -42.5 24.5t-13.5 48.5q2 18 14 32.5t29 20.5q29 -62 38 -125zM392 541l49 -47q-8 -78 15 -149l-129 123q28 36 65 73zM298 424q-17 -27 -30 -56l109 -104l102 -13zM973 161
q-8 -1 -25 -4q-62 -10 -98 -14.5t-98 -8.5t-128 2t-141 20q-95 19 -179.5 24t-136 1.5t-119.5 -13.5q25 -54 61 -100q27 7 34 30q3 8 6 21q5 22 13 23q11 1 90 -41q12 -6 18 -10q37 -19 76 -31h58q5 -3 12.5 -4.5t17 -1.5t15.5 0.5t16 1.5t12 1q13 1 15 3h18q5 5 0 11
q-3 4 7 4q11 -1 76 -15h99q8 -1 25.5 -4.5t23.5 -4t19 -2.5t19.5 -1.5t16.5 1.5t18.5 4t18.5 7h25q17 19 59 11q33 42 56 90zM109 68q27 7 34 30q3 8 6 21q5 22 13 23q11 1 90 -41q12 -6 18 -10q102 -54 195 -46q48 5 48 21q-1 2 -3 5q-3 4 7 4q4 0 120 -25q190 -40 216 4
q16 26 64 17q6 7 11 14q-39 8 -54 -2q-19 -13 -36 -20.5t-28 -11.5t-29.5 -3t-27 1.5t-35.5 5.5t-41 7q-82 14 -141 27q-23 5 -32.5 2t-9.5 -16v-4q0 -9 -2 -11t-15 -3q-2 0 -12.5 -1t-17 -1.5t-16.5 -0.5t-17.5 2t-13 5.5t-10.5 9.5t-11.5 7t-26.5 1q-23 0 -38 17t-31 19
q-12 1 -29 8t-32 14t-30 12.5t-28 4t-21 -12.5q-1 -1 -9 -25t-21 -26q-8 -1 -16 -6q6 -9 12 -16zM109 68q27 7 34 30q3 8 6 21q5 22 13 23q11 1 90 -41q12 -6 18 -10q102 -54 195 -46q48 5 48 21q-1 2 -3 5q-3 4 7 4q4 0 120 -25q190 -40 216 4q16 26 64 17
q-71 -93 -177.5 -146t-227.5 -53q-120 0 -225.5 52.5t-177.5 143.5zM11 343q29 34 56 37q12 1 22 -4.5t28 -5.5q16 -1 25 -7t9 -13l1 -6q-4 0 -10.5 -1.5t-25.5 -3.5t-35.5 -2.5t-36.5 0.5t-33 6zM112 540q-1 -3 -3 -8q-3 -8 -4 -8l-2 -6l-1 -2t-1 -4q-1 -2 -5 -13l-4 -15
l-3 -8l-1 -8q-1 -2 -4 -16q-1 -3 -2 -8l-1 -8q-1 -4 -1.5 -9.5t-0.5 -6.5q0 -3 -0.5 -8.5l-0.5 -5.5q-1 -2 -1 -13v-6v-3v-2v-8v-7l-23 -7l1 8q1 3 1 9q1 2 1 5q0 2 0.5 4t0.5 3q2 12 2 13q1 1 2 7t2 9l1.5 6.5t2.5 9.5q0 2 1 4.5t1 4.5q2 6 3 8q5 15 6 17q0 2 3 8
q0 1 1.5 4t1.5 4t7 16q5 11 6 13l3 6q1 2 2 5q1 1 5 9zM104 533q-2 -1 -4 -1q-1 0 -2.5 -0.5t-2 -0.5t-4.5 -2q-2 0 -6 -2q-1 0 -3 -1t-3 -1l-2.5 -1t-3.5 -2q-1 0 -2 -1h-1q-2 -2 -4 -2l-3 -3l-1 -1l-2 -2q-1 0 -3 -3l-3 -3q-1 -1 -2 -3l-1 -1l-2 -2q-3 -3 -4 -6
q-2 -2 -3 -5q-2 -2 -3 -4l-2 -3h-1q0 1 1 4v0q1 1 1 2l0.5 1l0.5 1l3 6t3 7l2 3q1 2 2.5 4l3 4t2.5 4l2 2l2 2l3 3q1 1 2.5 2t1.5 2l1.5 1t2.5 2q4 3 9 5q3 1 8 2h6q5 -1 9 -4l2 -2v-1zM106 541l-1 1h-2q-1 0 -2 0.5t-2 0.5l-4 2l-2 0.5l-2 0.5l-5 1q-1 1 -3 1.5t-3 0.5
l-2 1h-4h-1h-2l-3 -1q-3 0 -6 -1q-1 0 -2 -0.5t-2 -0.5q0 -1 -1 -1.5t-1.5 -0.5t-3.5 -1q-2 -1 -2 -2q-4 -2 -5 -3q-3 -1 -4 -2l-3 -2l-1 1l3 3q1 1 4 3q1 2 4 4q1 1 3 2q3 2 3 3q3 2 7 4l1.5 0.5t2.5 1.5q3 1 4 1q3 1 4 2h2h2q4 1 8 1.5t7.5 -0.5t5.5 -3l4 -4q3 -4 4 -8
l1 -4zM112 547v0q-1 1 -1 3q-1 2 -1 3q-1 3 -1 6t1 6q0 4 1.5 8t4 8t4.5 8t6 8l3 3l4 3q3 3 7 5l1 1q1 0 1.5 0.5t1.5 1t1.5 0.5t2.5 1t3 1q3 1 4 1l3 1v-2l-3 -1q-1 0 -2 -1t-2 -1q-1 -1 -3 -2l-1 -1l-3 -2l-1 -1t-2 -1l-5 -5l-1 -1t-1 -2q-2 -2 -2 -3q-3 -3 -4 -6
q-2 -3 -3 -7q0 -1 -0.5 -3t-1.5 -4t-2 -6l-2 -6q-2 -5 -4 -9l-2 -4v0h-1zM120 547q0 1 1 1q0 2 1 4q1 3 2 5q2 4 4 7l6 8t7 7t9 6q7 4 10 5q1 1 5 2t5 2q5 1 9 1h3h2h2l0.5 -0.5l0.5 -0.5q2 0 7 -2q4 -2 5 -2l3 -2l3 -3l-1 -1l-3 1l-4 2h-3l-2 1h-7h-2h-1h-2l-2 -1
q-1 0 -4 -1q-1 0 -3 -1h-1q-1 0 -4 -2l-4 -2q-3 -1 -8 -5q-3 -3 -7 -6l-6 -6q-2 -1 -4 -3t-2 -3q-8 -7 -10 -8l-4 -3h-1zM121 539q0 2 2 3q1 2 3 3l4 4q3 2 6 3q4 2 7 3h6t7 -1q3 -1 5 -2q3 -1 5 -3q2 -1 4 -3q3 -3 3 -4l0.5 -0.5t0.5 -1.5l1 -1q1 -2 2 -3l1 -2l-1 -1l-2 2
q0 1 -2 2q0 1 -1 1l-1 1t-4 3t-4 2q-3 1 -5 1.5t-5.5 1t-5.5 -0.5q-2 0 -5 -1q-1 0 -3 -0.5t-3 -0.5q-1 -1 -4 -2l-8 -2l-3 -1v0zM118 530h1l0.5 0.5t1.5 0.5h2h2t2 -1l2 -2l1 -2q0 -1 1 -3v-2v-3l-1 -2v-4l-1 -1v0v1v0.5v1.5v0v1l-0.5 1l-0.5 1v1v1l-0.5 1l-0.5 1
q-1 1 -1 2l-1 1l-0.5 0.5t-1.5 0.5l-1 1l-1 1l-2 2h-1v1zM147 474v-4v-5q0 -4 -1 -7q0 -2 -1 -9l-1 -9q0 -1 -1 -5l-1 -5q0 -2 -2 -11q-1 -2 -2 -6t-1 -5q-1 -2 -2 -5.5t-1 -4.5q-1 -2 -2.5 -5.5t-1.5 -4.5t-3 -8q0 -1 -1 -3.5t-2 -3.5l-3 -6l-2 -5l-11 4l2 5q2 2 3 5
q1 1 2 3.5t2 2.5q3 8 4 8q0 1 1.5 4l2.5 5q0 1 1.5 4.5t2.5 5.5q0 1 2 4.5t2 5.5q3 9 4 11q1 4 1 5q1 0 2 4q0 1 2 10q2 7 2 8q1 4 1 7q0 1 1 6zM150 471v0q1 1 2 1.5l3 1.5q2 0 4 1h4q3 -1 4 -2l2 -1l2 -2l1 -1v-0.5t0.5 -1t0.5 -1.5l1 -2l1 -1v-1l1 -2v-1v-1v-1v-1v-4v-4
q0 -1 -1 -3v-3v-3h-1v2v3q-1 2 -1 3v4q-1 1 -1 2v2l-1 1v0v1l-1 1v1l-1 1l-1 2l-1 1l-0.5 0.5t-1.5 0.5q-1 1 -1.5 1h-1h-0.5q0 1 -1 1.5t-1.5 0.5t-1.5 0.5t-1.5 0.5t-1.5 0.5l-1 0.5h-1t-1 1h-2v0v1zM151 476v1q1 0 1.5 1t2.5 3t3 2q0 1 2 2q1 1 2 1q1 1 5 2h5h1h1h2h2
l1 -1h2q0 -1 3 -3q1 0 3 -2q1 -1 1.5 -2l0.5 -1q1 -2 2 -2q0 -2 1 -3v-1v-1l-2 1q0 1 -1 2q0 1 -2 2l-1 0.5t-1.5 1t-1.5 1t-1.5 0.5t-1.5 0.5t-2 0.5h-2h-0.5h-0.5h-1h-0.5h-1h-1.5h-1q-1 0 -2 -0.5t-1.5 -1t-2 -0.5t-1.5 -1h-4q0 -1 -5 -2l-3 -1v1zM149 479v2q0 3 1 6
q1 6 1 8l2 4v4v4t-1 4q0 1 -1 3l-2 2l-2 2l-0.5 0.5l-0.5 0.5l-2 1l1 1h1q1 0 2 -1q1 0 3 -1t3 -2t2.5 -3t1.5 -4q1 -2 1 -4q1 -3 1 -5.5t-1 -5.5q-1 -4 -4 -9q-1 -3 -4 -5l-2 -2v0zM144 479q-1 0 -2 2l-1 2q-1 2 -2 3l-0.5 1.5t-1.5 1.5l-2 4l-2 3t-3 4t-3 2q-3 1 -5 1
q-1 1 -2 1h-2v0h-4l-4 -1l-3 -1l-3 -1v1l3 1q0 1 3 2l4 1l4.5 1.5t3 0.5h2.5v0q3 0 5.5 -0.5t4.5 -1.5t5 -3q2 -2 3 -4q3 -4 3 -10v-3v-4l-1 -3v0zM141 473l-1 1h-1l-0.5 0.5l-0.5 0.5l-3 1h-1t-1.5 0.5t-1 0.5h-1.5q-1 1 -1.5 1h-1.5h-1h-1h-1q-3 0 -3.5 -0.5t-2 -0.5
t-2.5 -1l-3 -1l-3 -2h-0.5t-1 -0.5t-1 -0.5h-0.5q0 -1 -2 -2l-2 -1v1l2 1l2 2l0.5 0.5l0.5 0.5l1 1l3 2l4 3q1 0 4 1q1 1 4 2h3h1h1q2 1 2 0.5t2 -0.5h2l1 -1q2 -1 2.5 -2t1.5 -2t1 -2v-2v0v-1zM139 468l-2 -2l-3 -1l-1 -1l-1 -1l-1 -1l-1 -1q-1 0 -1 -1l-1 -1t-1 -1.5v-0.5
l-1 -1v0v1l1 2v0.5v0.5q1 2 1 2.5t1 1.5t2 1l3 3t3 1q1 0 2 -1v0v0zM253 714h21q4 -1 14 -5.5t16 -4.5q10 0 9 3q-7 -1 -9 5q-1 4 2.5 7.5t15.5 11.5q16 12 12 22q-3 -4 -12 -9q-4 -2 -8.5 -5.5t-9 -8.5t-7.5 -7q-8 -7 -15 -6q-22 4 -29 -3zM643 656l21 1q4 -1 14.5 -6
t16.5 -5q9 0 9 4q-7 -2 -9 4q-1 4 2.5 7.5t14.5 11.5q17 12 12 22q-2 -3 -12 -8q-4 -3 -8 -6.5t-9 -8.5l-7 -7q-8 -7 -15 -6q-22 5 -30 -3zM547 763h22q4 0 14 -5t16 -5q10 0 9 3q-7 -1 -9 5q-1 4 2.5 7.5t15.5 11.5q16 12 11 22q-2 -3 -11 -9q-5 -2 -9 -5.5t-8.5 -8.5
t-7.5 -7q-8 -7 -15 -6q-22 5 -30 -3z" />
    <glyph glyph-name="boat__easyico1" unicode="&#xe602;" 
d="M512 896q139 0 257 -68.5t186.5 -186.5t68.5 -257t-68.5 -257t-186.5 -186.5t-257 -68.5t-257 68.5t-186.5 186.5t-68.5 257t68.5 257t186.5 186.5t257 68.5zM425 826q6 0 11 -3q6 6 15 6v0q16 0 20 -16q8 -2 10 -10h2q7 0 12 -4.5t5 -11.5t-5 -12t-12 -5q-4 0 -8 2
q-3 -11 -15 -11q-7 0 -12 4q-5 -4 -12 -4v0v0q-6 0 -11 4q-5 -5 -12 -5v0q-7 0 -11 4h-5v0q-8 0 -13.5 5.5t-5.5 14t5.5 14t13.5 5.5h2q1 10 8.5 16.5t17.5 6.5zM540 835q29 0 49 -20t20 -49t-20 -49t-49 -20t-49 20t-20 49t20 49t49 20zM287 277q-18 -4 -36 -4v0
q-57 0 -96.5 29t-39.5 70q0 33 27.5 59.5t69.5 35.5q6 13 17 24q-45 22 -45 62q0 31 30.5 53t72.5 22q44 0 74 -23q26 12 57 12q26 0 48 -9q10 24 37 39t62 15q41 0 70.5 -20t32.5 -50q8 1 17 1q43 0 73 -21.5t30 -52.5q0 -8 -2 -15h10q42 0 72 -21.5t30 -52.5q0 -17 -9 -32
q23 -10 36 -26.5t13 -36.5q0 -31 -30 -53t-73 -22q-35 0 -63 16h-485v1zM287 260q-18 -3 -36 -3v0q-57 0 -96.5 29t-39.5 70q0 33 27.5 59t69.5 35q6 14 17 25q-45 22 -45 61q0 31 30.5 53t72.5 22q44 0 74 -23q26 13 57 13q26 0 48 -9q10 23 37 38t62 15q41 0 70.5 -20
t32.5 -49q8 1 17 1q43 0 73 -22t30 -53q0 -7 -2 -14h10q42 0 72 -22t30 -53q0 -16 -9 -31q23 -10 36 -27t13 -37q0 -31 -30 -53t-73 -22q-35 0 -63 16h-485v1zM0 390h1024v-3v-3q0 -104 -40.5 -199t-109 -163.5t-163.5 -109t-199 -40.5t-199 40.5t-163.5 109t-109 163.5
t-40.5 199v3v3zM770.5 358q185.5 0 185.5 -10t-185.5 -10t-185.5 10t185.5 10zM113 356q102 0 102 -8t-102 -8t-102 8t102 8zM323 255q227 0 227 -6.5t-227 -6.5t-227 6.5t227 6.5zM271 216q167 0 167 -6t-167 -6t-167 6t167 6zM514 178q185 0 185 -7.5t-185 -7.5t-185 7.5
t185 7.5zM782 246q73 0 125 -3t52 -7.5t-52 -8t-125 -3.5t-125 3.5t-52 8t52 7.5t125 3zM239 327l-46 -8q-72 -18 -12 -53q38 -22 77.5 -32t65 -8.5t50.5 3.5q12 2 25 6t21 6.5t22.5 2t34.5 -6.5q31 -9 62 -13.5t58.5 -1.5t34.5 16q5 8 11.5 6.5t15 -8.5t15.5 -15.5
t13.5 -14t8.5 -3.5q1 0 79 9q90 10 89 28q-1 5 -7 10q-40 33 -72 49t-52 17.5t-37 1t-35 5t-37 23.5q-9 9 -52 10t-98 -3t-108.5 -10t-89.5 -11zM192 511q271 -39 585 0q7 1 13.5 -5.5t4.5 -12.5l-78 -197q-7 -18 -18 -18h-430q-10 0 -17 18l-78 197q-3 6 3.5 12.5t14.5 5.5
zM754 508l-82 -230h27q10 0 17 18l78 197q2 6 -4 11.5t-13 6.5q-13 -2 -23 -3zM192 511q10 -2 22 -3l82 -230h-27q-10 0 -17 18l-78 197v0v0v1v0v0v0q-1 1 -1 2v0v1v0v0v0v0q1 6 7 10t12 4zM174 494v0v0zM484 538q19 0 32.5 -13.5t13.5 -32.5h-17q0 12 -8.5 20t-20.5 8
t-20 -8t-8 -20v-1q-9 0 -18 1v0q0 19 13.5 32.5t32.5 13.5zM680 334l61 173l13 1l-62 -174l-20 -56h-12zM214 508l13 -2l61 -172l20 -56h-12l-20 56zM318 314q157 -36 332 -3q2 0 3 -1.5t1 -3.5v0q0 -4 -4 -4q-169 -33 -332 3q-6 1 -3 7q1 2 3 2zM275 483q197 -35 419 -3
q2 0 3 -1.5t1 -2.5v0q0 -4 -4 -5q-214 -33 -419 3q-7 1 -4 8q1 2 4 1zM286 449q187 -35 397 -3q2 1 3 -0.5t1 -3.5v0q0 -4 -4 -5q-203 -32 -397 3q-7 1 -4 8q1 2 4 1zM292 415q181 -35 385 -3q2 1 3 -0.5t1 -3.5v0q0 -4 -4 -5q-197 -32 -385 3q-7 2 -4 8q1 2 4 1zM300 382
q174 -36 368 -3q2 0 3 -1.5t1 -3.5v0q0 -4 -4 -5q-188 -32 -368 4q-6 1 -3 7q1 2 3 2zM309 348q165 -36 351 -3q1 0 2.5 -1.5t1.5 -3.5v0q0 -4 -4 -4q-179 -33 -351 3q-6 1 -3 7q1 2 3 2zM677 769q6 0 11 -2q6 6 15 6v0q16 0 20 -16q8 -3 11 -10h2q6 0 11 -5t5 -11.5
t-5 -11.5t-11 -5q-5 0 -8 2q-4 -12 -16 -12v0v0q-7 0 -12 5q-4 -5 -11 -5v0v0q-7 0 -12 5q-4 -6 -12 -6v0q-6 0 -11 5h-4v0q-9 0 -14.5 5.5t-5.5 13.5t5.5 14t14.5 6h1q1 9 8.5 15.5t17.5 6.5zM391 586v0q1 4 7 4t10 -3l313 -281q2 -2 2.5 -4.5t-0.5 -6.5t-1 -6v0
q0 -4 -6 -4t-10 3l-314 282q-8 7 -1 16zM678 298l29 33q11 13 29 13.5t32 -9.5l119 -80q14 -9 15 -28t-11 -33l-55 -65q-11 -14 -30 -15.5t-31 11.5l-93 112q-12 14 -13.5 30.5t9.5 30.5zM73 121q11 8 27.5 14.5t46 12.5t73 -1t92.5 -29q59 -25 104 -29t68.5 5.5t62 28
t68.5 26.5q17 4 29 9t17.5 7.5t8.5 5t5.5 2.5t5 -0.5t9.5 -4.5t17 -9t30 -14.5t45 -19.5q95 -38 169 -5q-69 -113 -185.5 -180.5t-253.5 -67.5q-138 0 -254.5 67.5t-184.5 181.5zM85 101q90 49 227 -11q59 -25 104 -29t68.5 5t62 27.5t68.5 26.5q17 5 29 9.5t17.5 7.5
t8.5 5.5t5.5 2.5t5 -0.5t9.5 -5t17 -9t30 -14t45 -19.5q81 -33 144 -15q13 19 25 38q-63 -28 -139 -6q-23 -5 -37 11l-3 4q-23 10 -41.5 18.5t-27 13t-15 8t-9 4t-4.5 0.5t-5.5 -2.5t-8.5 -5.5t-17.5 -7.5t-28.5 -8.5q-30 -8 -68.5 -26.5t-62 -28t-68.5 -5.5t-104 29
q-49 22 -92.5 29t-73 1t-46 -12.5t-27.5 -14.5zM178.5 88q9.5 0 9.5 -7t-9.5 -7t-9.5 7t9.5 7zM686.5 -13q9.5 0 9.5 -9t-9.5 -9t-9.5 9t9.5 9zM779 50q11 0 18.5 -6.5t7.5 -15t-7.5 -15t-18.5 -6.5t-18.5 6.5t-7.5 15t7.5 15t18.5 6.5zM656.5 70q6.5 0 6.5 -3t-6.5 -3
t-6.5 3t6.5 3zM556 -3q15 0 25 -7t10 -16.5t-10 -16.5t-25 -7t-25 7t-10 16.5t10 16.5t25 7zM357 35q18 0 30.5 -7.5t12.5 -18.5t-12.5 -18t-30.5 -7t-30.5 7t-12.5 18t12.5 18.5t30.5 7.5zM227 321q0 -1 -12 -7.5t-21.5 -14t-4 -17.5t34.5 -18q2 -1 3 -1l-1.5 1t-4 2.5
t-5 4t-4.5 5.5t-4 6.5t-1.5 8t2 9t6 10t12.5 11.5zM232 278q2 0 12.5 -9t27.5 -18t40.5 -15t59 1t74.5 29q3 1 5 2l-3.5 -1t-11.5 -3t-18.5 -4t-24 -4t-28 -3t-31.5 0t-33.5 3.5t-34.5 8t-34 13.5zM477 268q1 0 15.5 -11.5t32 -20t53 -3t78.5 32.5q1 0 -7 -3t-16.5 -6
t-7.5 -3q-30 -19 -80 -11q-34 5 -68 25z" />
    <glyph glyph-name="car__easyicon" unicode="&#xe603;" 
d="M0 384q0 -104 40.5 -199t109 -163.5t163.5 -109t199 -40.5t199 40.5t163.5 109t109 163.5t40.5 199t-40.5 199t-109 163.5t-163.5 109t-199 40.5t-199 -40.5t-163.5 -109t-109 -163.5t-40.5 -199zM407 376l-26 18l-15 6l-8 4q211 121 618 197q48 -103 48 -217
q0 -17 -1 -32v0q-272 28 -566 25zM1022 358q-34 -3 -116 6q-16 2 -49.5 -4.5t-50.5 -4.5q-9 1 -37.5 9t-44.5 6q-10 -2 -31 -10t-32 -8q-15 -1 -41 7t-39 8q-17 1 -48.5 -11.5t-47.5 -13.5q-13 -1 -40 4t-41 4q-12 -1 -33.5 -8t-30.5 -9q-21 -4 -60.5 1.5t-48.5 5.5
q-18 0 -58 -10t-55 -11q-17 -1 -60 6t-56 0q1 -8 6 -29v0q29 -169 156 -287.5t300 -133.5l2 -1h9l4 -1h8h2.5h2.5h3.5t3.5 -1h8h4h1h11l2 1h11h3q5 0 10 1h4q4 0 6 1q171 16 297.5 132.5t157.5 283.5q4 17 7 56v0h1v0v6v2v0v1v2zM976 178q-24 5 -79 19t-96 20t-80 3
q-31 -2 -91 -17t-89 -18q-43 -4 -97 3.5t-96.5 18t-96.5 16.5t-96 -2q-23 -5 -65.5 -18t-52.5 -16q54 -130 167.5 -214.5t256.5 -97.5l2 -1h9l4 -1h8h2.5h2.5h3.5t3.5 -1h8h4h1h11l2 1h11h3q5 0 10 1h4q3 0 6 1q140 13 252.5 95t167.5 208zM818 27q-16 0 -45.5 1.5
t-118.5 17t-177 43.5q-86 27 -150 40.5t-128 10.5q-59 -3 -130 -18q62 -104 165.5 -170t226.5 -77l2 -1h9l4 -1h8h2.5h2.5h3.5t3.5 -1h8h4h1h11l2 1h11h3q5 0 10 1h4q3 0 6 1q146 13 262 102v50zM838 -7q-53 7 -155.5 22t-151.5 21q-131 17 -212 4q-59 -9 -146 -42
q124 -108 288 -123l2 -1h9l4 -1h8h2.5h2.5h3.5t3.5 -1h8h4h1h11l2 1h11h3q5 0 10 1h4q3 0 6 1q160 14 282 118zM19 522l3 -1l21 -5q4 -1 19.5 -5t23.5 -6l44 -13l21 -7l21 -7l43 -15l42 -16l21 -8l20 -9l42 -17l18 -9l8 -4l15 -6l42 -18l-31 -1l-33 -1l-26 -1l-6 -1l-66 -4
q-9 0 -19 -1t-22.5 -2t-19.5 -2h-1h-2l-32 -3l-8 -1l-8 -1l-16 -2q-105 -12 -129 -16l-2 -1q1 -15 4 -31v0q-6 38 -6 76v0q0 71 19 138zM2 339l2 1q24 4 129 16l16 2l8 1l8 1l32 3h2h1q2 0 25.5 2.5t35.5 2.5l66 4l6 1l26 1l33 1l65 2l65 1h33h33l65 -1l42 -2l23 -1l32 -1
l33 -2l65 -4l64 -5q25 -2 65 -6q8 -1 23.5 -2.5t22.5 -1.5q-5 -77 -31 -147q-8 2 -13 3q-13 3 -27.5 5.5t-32 6l-27.5 5.5q-52 9 -87 15q-145 22 -349 38q-102 7 -162 10q-59 3 -146 6q-71 2 -123 2h-17q-4 22 -6 43v0zM52 337q-26 -3 -49 -5q0 -8 1 -14q24 3 49 5z
M1014 290l-3 -13q-18 3 -35 7l-5 1l3 13zM919 308q-34 6 -68 11l-2 -14h3q35 -5 65 -10zM796 327q-34 4 -68 7l-2 -13q34 -4 69 -8zM673 340q-35 3 -69 5l-1 -14q34 -2 68 -5zM548 348q-34 1 -69 2v-13q35 -1 69 -3v14zM424 351q-36 1 -69 1v-14h69v13zM300 351
q-26 2 -69 -2v-14q32 4 69 2v14zM176 346q-35 1 -69 -5v0l1 -13q21 3 68 4v14zM287 766q10 0 18 -4q9 8 21 8v0q11 0 19.5 -6.5t11.5 -16.5q11 -4 16 -15h2q11 0 18 -7.5t7 -17.5t-7 -17t-18 -7v0q-6 0 -11 3q-5 -18 -24 -18v0q-10 0 -17 7q-8 -7 -18 -7v0q-10 0 -17 7
q-7 -8 -18 -8v0v0q-10 0 -17 7q-3 -1 -6 -1v0q-13 0 -21.5 8.5t-8.5 20.5t8.5 21t21.5 9q1 0 2 -1q2 15 13 25t25 10zM472 715zM384 715.5q0 -36.5 25.5 -62.5t62.5 -26t63 26t26 62.5t-26 62.5t-63 26t-62.5 -26t-25.5 -62.5zM561 751q9 0 18 -4q9 9 22 9v0q12 0 20.5 -7
t11.5 -18q12 -3 16 -15h3q10 0 17.5 -7.5t7.5 -18t-7.5 -18t-17.5 -7.5q-7 0 -12 3q-6 -18 -25 -18v0q-10 0 -18 8q-7 -8 -18 -8v0v0q-10 0 -17 7q-8 -8 -19 -8v0v0q-10 0 -18 7q-3 -1 -6 -1q-13 0 -22 9t-9 21.5t9 21.5t22 9h2q2 15 13.5 25t26.5 10zM206 518q0 -1 -1 -2h3
v-3l-2 1l-1 -2l1 -1h-1l-2 -1v0h1l1 -1h-2l1 -1l-3 -3q-1 -6 -7 -3q-2 -1 -5 -1t-6 2h-3l-1 2h-3v3l1 3q-4 0 -4 3q-2 0 -3 1q-3 -2 -7 -2q-2 -1 -4 -1q-8 0 -14 5h-8q-4 0 -3 6q-2 -6 -7 -2l-3 -2q-1 -6 -7 -3q-2 -1 -3 -1h-1q-4 0 -6 2h-3l-2 2q-1 -3 -3 0v0v3q-2 2 1 2
l-4 4v5v1l-1 -1q-4 0 -6 2h-3l-1 3l-4 -1q-3 4 1 4v2l-4 4v5v3l2 1l2 5l3 1l4 1l2 2h2v0v1v5v2q-1 1 0 2q-1 2 -0.5 4t1.5 3v1v6l4 3q-2 5 -1 7.5t3 2.5l2 1l6 2q1 2 3 2.5t4 -0.5l2 -1l5 5q2 1 3.5 0t2.5 -2l1 -1q4 5 7 5l3 5l4 1l6 1l3 3q3 1 5 -2l8 1q5 2 7 1t3 -3l1 -2
q2 3 7 -4q1 -2 -1 -5l3 -3q3 4 5.5 4.5t3.5 -1.5l1 -2q6 2 9 1t4 -4l1 -2q3 4 9 -5q1 -2 1 -4t-1 -3l-1 -1l-2 -5q3 -3 -1 -6h5v-5l-3 1q-3 -1 -3 -2q3 0 4.5 -1t2.5 -2v-2q2 3 6 -3l-1 -6l-1 -3q2 -2 0 -4h3v-3l-2 1q-1 -1 -2 -1l3 -4q1 2 5 -2l-1 -5l-1 -3q1 -1 0 -3h2v-2
h-2l-1 -1l1 -2h-1h-1v-1h1v0l-1 -1v-1l-3 -3q-1 -6 -7 -3q-1 0 -3 -1h-1q-4 0 -6 2h-1zM155 430v12l-2 29q-1 11 1 14q21 21 25 22q3 27 7 27l-4 3q-3 -26 -6 -30q0 1 -0.5 2.5t-1.5 5.5t-1.5 7.5t-1.5 8t-1.5 7.5t-1 6.5l-0.5 3.5l-1 -1l3 -39l-6 -7q-1 1 -3 -3
q-2 1 -3.5 3.5t-4 13t1.5 28.5l-5 3l-4 -25l1 -6l5 -17l-5 -5l-6 16q-1 1 -1 2.5t-1 5.5t-1.5 7t0 6.5t1.5 4.5l-2 2v-20q-1 2 -3 3.5t-5.5 5t-5.5 3.5v-2l5 -2q3 -3 8 -10q7 -20 7 -24v-15q6 -33 -4 -42zM256 392q-1 -5 -5 -8.5t-9 -3.5h-10l-1 1q-4 11 -8 23q4 5 9 5h1
l10 -1q5 0 9 -4t4 -9v-1v-2zM232 409l19 9.5l25 12.5t27.5 13t33 13t34 10.5t37.5 8.5t37 3t39.5 -1.5t37.5 -9.5q24 -7 62 -42h23t54 -4t71 -10.5t62.5 -20.5t40.5 -33l-3.5 -3.5t-15 -8.5t-31 -10t-54 -7.5t-80.5 -3.5q-261 12 -329 18q-21 -1 -48 18t-35 26q-3 11 -7 22z
M738 329h3.5h4.5t2 1q-1 18 -17.5 33.5t-37.5 17.5q-24 1 -42 -15t-19 -40l107 -6zM641 325q-1 -20 12.5 -35t33.5 -16.5t35.5 12t16.5 34t-12.5 35.5t-34 16t-35.5 -12.5t-16 -33.5zM652.5 324.5q-0.5 -15.5 9.5 -27t25.5 -12.5t27 9.5t12.5 26t-9.5 27t-25.5 12t-27 -9.5
t-12.5 -25.5zM660.5 324q-0.5 -12 7.5 -21.5t20 -10t21.5 7.5t10 20.5t-7.5 21.5t-20.5 10t-21.5 -7.5t-9.5 -20.5zM403 430l-16 41q-47 -10 -102 -36q36 -5 65.5 -6t41.5 0zM420 466l7.5 -12.5t18 -19.5t27.5 -13q73 -9 110 6q-33 30 -59 41q-102 2 -104 -2zM492 397
q-1 -3 -4 -3h-1l-20 1q-4 0 -4 4v0q0 4 4 4v0l21 -1q4 -1 4 -4v-1zM429 335q1 1 3.5 1t4 -0.5t2.5 0.5q1 18 -14 35t-36 20q-24 4 -43 -10.5t-23 -38.5l106 -15v8zM332 340q-3 -20 9.5 -36t32.5 -19t36 9t19 32.5t-9 36.5t-32.5 19t-36.5 -9.5t-19 -32.5zM343.5 338.5
q-2.5 -15.5 7 -27.5t25 -14.5t27.5 7t14.5 24.5t-7 27.5t-24.5 15t-27.5 -7t-15 -25zM351 337.5q-2 -12.5 5.5 -22t20 -11.5t22 5.5t11.5 19.5t-5.5 22t-19.5 12t-22 -5.5t-12 -20z" />
    <glyph glyph-name="dump_truck__e" unicode="&#xe604;" 
d="M512 896q104 0 199 -40.5t163.5 -109t109 -163.5t40.5 -199t-40.5 -199t-109 -163.5t-163.5 -109t-199 -40.5t-199 40.5t-163.5 109t-109 163.5t-40.5 199t40.5 199t109 163.5t163.5 109t199 40.5zM103 692l13 4l1 -25q1 2 2 5t1 3.5t1 2.5t1.5 2t2.5 1.5t3 2.5t5 3l6 6
h2l3 1l8 4l6 2l5 4v1l1 3l2 -2l8 -1l2 4l2 -5l9 -9l1 4l17 -3h2l2 -1h2v1l8 5l4 2l1 1l7 4l5 4l1 1l1 4l2 -2l10 12l1 -9l21 -12l13 7l1 1h1l1 1l2 2l2 2l1 6l4 -4l4 -1l13 -2l5 -1l1 1l10 -8l1 -1l5 -12l7 14l10 3h1l4 -2l9 -7l3 12l10 5v2l6 1l2 1h1l2 4l6 -8l1 -1l6 -8
l2 -2l4 -1l1 3l2 14l9 -9l10 13l1 -3l14 7l-9 -31l11 5l5 16l3 -4l6 5l2 3l4 3v-1h16l-1 -2v0l-19 -21l-1 -1v-1v0h2l6 15l11 -17l6 -8l1 -1v0l1 1l3 7l5 10l12 -10h3l5 7l10 10l2 -10l4 -16l1 -1v0l4 11l4 -2l6 -1l8 15l6 -12l10 12l7 -30l9 12l10 11l11 -26l10 11l10 12
l10 -31l10 12l10 9l10 -26l10 9l15 -4h1l11 8l7 -26l11 8l6 -2l12 10l5 -30l12 9l19 -8l2 -1l11 4l7 -22l10 4h1l11 3l6 -22l11 3h1l3 -3l2 -1l18 -11l13 4v-27l7 3l15 8l-3 -33l14 8l12 -10l2 -2l13 3l-4 -27l6 1l2 -1l11 2l1 -12l1 -1l6 -6l3 -2h2l7 -7l1 -2l3 -4l15 1
l-12 -27l15 1l1 -1l1 -3l2 -2l4 -6l11 -2l-7 -22l11 -2l2 -3v-1q2 -3 5 -8v0v-10v-1v-2q1 -6 1 -12v0v0v0v-13q0 -104 -40.5 -199t-109 -163.5t-163.5 -109t-199 -40.5q-82 0 -161.5 34t-141.5 89t-110 122.5t-73.5 137t-25.5 129.5q0 172 103 308zM909 61q-17 8 -34 27
l-1.5 28.5t-0.5 15t-1 7t-2 2.5t-3 5l-5 10q-8 -6 -15.5 -6.5t-14.5 2t-10 2.5q-1 0 -8 -2q-13 -2 -17.5 -2t-4.5 1.5v4.5t-3 5q-7 6 -13.5 2.5t-23.5 3.5q-9 -4 -60 -7q-25 -2 -34.5 -9.5t-18.5 -9.5q-19 -6 -34 -5.5t-21.5 3t-17.5 9t-15 8.5l-174 78q-31 22 -37 15l-1 1
q-1 5 -3 12q-6 -3 -11 -2t-8.5 3t-3.5 2.5t-3 2.5q-3 -8 -5 -16q0 -4 -1.5 -5t-8.5 -1q-3 1 -5 1l-18 10q-1 1 -4 3q-2 -4 -4 -7.5t-2 -5t-2.5 -2t-3.5 -0.5t-8 2q-7 1 -11 0v0q1 5 -5 20q-5 -2 -8.5 -4.5t-4 -4.5t-2 -2.5t-3.5 1t-7 5.5q-8 6 -10.5 11.5t-1.5 7.5t-4.5 4
t-19.5 4q1 -5 3 -8v-1q-2 -1 -4 -5q-14 -1 -17.5 -1t-6.5 2t-2.5 4.5t-2 9.5t-7.5 16q-10 1 -23 -6.5t-23 -13t-28 3.5t-41 39q-7 8 -18 22q6 -98 49 -187t110.5 -153t159.5 -101.5t192 -37.5q118 0 221.5 50.5t175.5 138.5zM321 255l1 -205l8 209zM616 134l1 -205l7 208z
M580 549l298 -114l-19 38h-4l2 6h-3v2l1 3h-3l-1 1v0l1 5l-2 1h-1v1l-2 3l-2 1l1 5l-2 1h-1v1l-5 1l-5 2l-3 -1l-2 5l-2 -1h-2l-4 2h-1h-1l-12 4l-7 1l-2 4l-2 -1v0h-1l-6 16v1h-3l3 6h-3v0l-1 1h-3l5 6l-4 1v0h-3l3 6h-4v2l3 4l-4 1v0v1l-2 1l1 4l-2 1v0v1v2h-1v1v1l-2 3
l-2 1l2 5h-1l-3 6l-1 1l-3 -1v0v1h-1h-2v0l-1 -1v0l-1 -1l-3 -1l1 6l-3 -1l-3 -1h-4l-1 1l-1 -2l-1 -1l-1 -1l-2 1l-2 2l-1 -3h-5l-1 1v0h-1v0l1 -3l-5 1v-2h-2l-2 -1l-2 -2l-4 2l-1 -2h-1v0v0l-22 -6l-5 -1l-1 -3l-5 4v0v0l-1 -3l-4 1l1 -3l-6 1l1 -3l-4 4v1l-1 -2l3 -3
l-3 -1h-1l1 3v1v-1v-2h-1l-1 -2l-4 2v-2h-1l-1 1v0l-2 3l-1 -4h-1l-7 -1v0l-3 2l-1 -4v0v0h-1v0l-13 -3l-2 -1l-1 -2l-5 3l-1 -2v0l-1 -1l-1 -4l-5 6l-1 -4h-1v0h-1l-1 -2l-4 3l-2 -3v0zM140 393q6 15 11 31.5t6.5 24t6 16t7.5 11.5t12.5 6.5t19.5 5t30 3.5q2 0 12 12.5
t24 32t27 37.5t25.5 35.5t13.5 19.5q1 0 107 -39l-1 -225q-73 60 -126 54t-100 -89q-8 3 -47 16.5t-54 18.5q2 6 5.5 17t5.5 16q9 -2 15 -4zM445 424l-208 70q6 7 21.5 27.5t30 41t30 42t16.5 23.5q15 -5 29 -10q18 -7 78 -30zM350 667l134 -49l30 -42l430 -155l-43 -109
l-440 29l-3 254l-115 43zM491 553l2 -182l67 -4l-3 162zM607 364l107 -7l-1 114l-108 40zM762 354l118 -8l21 55l-140 53zM133 391q24 -9 53 -19q7 16 12 32q-26 10 -53 19q-6 -14 -12 -32zM654 316q-5 2 -9 2l-1 6q-1 4 -3 4l-5 1q-3 0 -4 -3l-2 -6h-1h-8l-2 5q-2 3 -4 3
l-5 -1q-3 0 -3 -4l-1 -6q-4 -1 -9 -2l-3 4q-2 3 -4 2l-5 -2q-3 -1 -2 -4l1 -6q-4 -2 -8 -5l-5 4q-2 2 -4 0l-4 -3q-2 -1 -1 -4l3 -6q-4 -3 -7 -7l-6 3q-3 2 -4 -1l-3 -4q-2 -2 0 -4l4 -5q-3 -4 -5 -8l-6 1q-3 1 -4 -2l-2 -4q-1 -3 2 -5l4 -3q-1 -5 -2 -9l-6 -1q-4 0 -4 -3
l-1 -5q0 -2 3 -4l6 -2q-1 -4 -1 -7v-2l-5 -2q-4 -1 -3 -4v-5q0 -2 4 -3l6 -1q0 -4 2 -9l-5 -3q-3 -2 -2 -4l1 -5q1 -3 5 -2l6 1q2 -5 4 -9l-4 -4q-3 -3 -1 -5l3 -4q1 -2 4 -1l6 2q3 -3 6 -7l-3 -5q-1 -3 1 -5l4 -3q2 -2 4 0l5 4l8 -6l-2 -6q0 -3 2 -4l5 -2q2 -2 4 1l4 5
q4 -2 9 -4v-6q0 -3 2 -3l5 -2q3 0 4 3l3 5q5 0 9 -1l2 -5q1 -4 3 -4l5 1q3 0 4 3l1 6q4 0 9 1l3 -5q2 -3 4 -2l5 1q3 1 2 4v6q4 2 9 4l4 -4q2 -3 4 -1l5 2q2 2 1 5l-2 5l8 6l5 -3q2 -2 4 0l4 4q2 2 0 4l-3 5l6 8l5 -2q3 -1 5 1l2 5q2 2 -1 4l-4 4q2 5 4 9h6q3 -1 4 2l1 5
q1 2 -2 4l-5 3q1 5 1 9l6 1q3 1 4 4v5q0 2 -3 3l-6 2q-1 5 -1 9l5 3q3 1 3 4l-1 5q-1 2 -4 2h-6q-2 5 -4 9l5 4q3 2 2 4l-3 5q-1 2 -4 2l-6 -2q-3 4 -5 8l3 5q2 2 0 4l-3 4q-2 2 -5 1l-5 -3q-3 3 -7 6l2 6q1 3 -1 4l-4 3q-2 2 -5 -1l-4 -4q-4 3 -9 5l1 5q1 4 -2 5l-5 1
q-2 1 -4 -1zM644 275.5q-20 7.5 -39.5 -1.5t-26.5 -29.5t2 -39.5t29 -26.5t39.5 1.5t26.5 29.5t-2 39.5t-29 26.5zM345 397l-8 2l-1 5q0 3 -2 3h-4q-3 1 -3 -2l-2 -5h-1h-7l-2 5q-1 2 -3 2l-4 -1q-2 0 -2 -3l-1 -5q-4 -1 -7 -2l-3 4q-2 2 -4 1l-4 -1q-2 -1 -1 -4l1 -5
q-4 -2 -7 -4l-4 3q-2 2 -4 1l-3 -3q-2 -1 -1 -4l2 -4q-3 -3 -5 -6l-5 2q-2 1 -4 0l-2 -4q-2 -1 0 -4l3 -3q-2 -4 -4 -7l-4 1q-3 0 -4 -2l-2 -4q-1 -2 2 -3l4 -3q-2 -4 -3 -8h-5q-2 0 -3 -2v-5q-1 -2 2 -3l5 -2q-1 -3 -1 -6v-2l-4 -1q-3 -1 -3 -3l1 -4q0 -3 2 -3l5 -1
q1 -3 2 -7l-4 -3q-2 -1 -2 -3l2 -5q1 -2 3 -1h5q2 -3 4 -7l-4 -3q-2 -2 0 -4l2 -4q1 -1 4 0l5 1q2 -3 5 -5l-3 -5q-1 -2 1 -4l3 -3q2 -1 4 1l4 3q3 -3 6 -5l-1 -5q-1 -2 1 -3l4 -2q2 -1 4 1l3 4q2 -1 4 -1.5t4 -1.5l-1 -5q0 -3 3 -3l4 -1q2 -1 3 2l2 4h8l1 -5q1 -3 3 -3h5
q2 0 2 3l1 5q4 0 8 1l2 -4q2 -3 4 -2l4 1q2 1 2 4l-1 5q4 1 8 3l3 -4q2 -2 4 -1l4 2q1 1 1 4l-2 5q3 2 6 5l4 -3q3 -1 4 0l3 3q2 2 0 4l-2 4q2 3 5 6l4 -1q3 -1 4 1l2 4q1 1 -1 3l-3 4q1 3 3 7h5q3 0 3 2l2 4q0 2 -2 3l-5 3q1 3 1 7l5 1q3 1 3 3v4q0 2 -2 3l-5 1q0 4 -1 8
l5 2q2 2 2 4l-1 4q-1 2 -3 2h-5q-2 4 -3 7l4 4q2 1 1 3l-2 4q-1 2 -4 1l-5 -1q-2 4 -4 7l3 4q2 2 0 4l-3 3q-1 1 -4 0l-4 -2q-3 2 -6 5l2 5q1 2 -1 3l-3 3q-2 1 -4 -1l-4 -3q-3 2 -7 3l1 5q0 3 -2 4l-4 1q-2 1 -4 -1zM336 362q-17 6 -33 -1.5t-22 -24t1.5 -33t24.5 -22.5
t33 2t22 24.5t-1.5 32.5t-24.5 22zM441 573l-116 41l10 14q23 -8 107 -38zM427 451l-5 118l-91 33l-58 -95l-3 -3zM410 575l13 -4l-39 -108l-13 4zM186 471l16 -6q11 -3 7 -14t-15 -7l-16 5q-11 4 -7 15t15 7zM725.5 558.5q6.5 -2.5 5 -6.5t-8 -1.5t-5 6.5t8 1.5zM704 568
q1 0 0 -2q0 -1 -0.5 -1.5l-0.5 -0.5q-1 0 0 2q0 1 0.5 1.5zM737.5 575.5q-1.5 0.5 -2.5 -2.5t0.5 -3.5t2.5 2.5t-0.5 3.5zM756.5 576q3.5 -1 2.5 -3.5t-4.5 -1.5t-2.5 3.5t4.5 1.5zM699.5 530q5.5 -2 4.5 -5t-6.5 -1t-4.5 5t6.5 1zM657 551.5q1 -0.5 0.5 -2.5t-2 -1.5
t-0.5 2.5t2 1.5zM679.5 558q0.5 0 0.5 -1t-1 -0.5t-0.5 1t1 0.5zM748 568q2 -1 2 -3l-1 -1q0 -2 -2 -2h-1q-3 2 -2 4.5t4 1.5zM753 564q1 0 0.5 -1.5t-1.5 -1t-0.5 1.5t1.5 1zM767.5 554.5q1.5 -0.5 1 -2t-2 -1t-1 2t2 1zM837 475q1 0 1.5 -0.5l0.5 -0.5q0 -1 -2 0
q-1 0 -1.5 0.5l-0.5 0.5q0 1 2 0zM813.5 495q8.5 -3 6.5 -8.5t-10.5 -2t-6.5 8.5t10.5 2zM784.5 503q2.5 -1 2.5 -1.5t-2.5 0.5t-2.5 1.5t2.5 -0.5zM727 531q1 -1 0 -3l-0.5 -0.5l-0.5 -0.5q-1 0 0 2q0 1 0.5 1.5zM762 533l0.5 -0.5l0.5 -0.5h-2l-0.5 0.5t0.5 0.5h1z
M760 524q6 -2 4.5 -6t-7.5 -2t-4.5 6t7.5 2zM742 518q2 -1 3.5 -2l1.5 -1q0 -2 -6 0q-2 1 -3.5 2t-1.5 2t6 -1zM663 539.5q1 -0.5 1 -1t-1.5 -0.5t-1 1t1.5 0.5zM675 542l-0.5 -0.5l-0.5 -0.5q-1 -2 0 -2l0.5 0.5l0.5 0.5v2zM707 549q1 0 0 -3q0 -1 -0.5 -1.5t-1.5 -0.5t0 3
q0 1 1 2t1 0zM81 285v-102l12 82l8 -22l-4 47zM157 275l1 -102l8 104zM238 246l1 -102l7 104zM814 149l1 -116l7 118zM564.5 849q21.5 0 37 -15t15.5 -37t-15.5 -37.5t-37 -15.5t-37 15.5t-15.5 37.5t15.5 37t37 15z" />
    <glyph glyph-name="mountain__eas" unicode="&#xe605;" 
d="M512 896q139 0 257 -68.5t186.5 -186.5t68.5 -257t-68.5 -257t-186.5 -186.5t-257 -68.5t-257 68.5t-186.5 186.5t-68.5 257t68.5 257t186.5 186.5t257 68.5zM508 606q42 0 71.5 -29.5t29.5 -71t-29.5 -71t-71.5 -29.5t-71.5 29.5t-29.5 71t29.5 71t71.5 29.5zM34 201
l45 2l35 50l17 -10l56 39l19 -17l30 12l56 -22l42 -41l54 15l18 -29l30 9l73 -32l79 39l25 3l34 16l11 18l34 16l22 5l33 -13l26 20l24 -17l57 16l24 -3l62 -50l14 10l40 -27q30 84 30 174q0 20 -2 40l-21 -5l-66 -39l-59 -19l-40 51l-47 31l-34 -8l-13 -24l-32 -8l-6 -28
l-37 -32l-18 22l-26 15l-11 22l-104 60l-124 -58l-47 41l-34 -27l-38 -61l-106 -4l-62 16l-34 19l-36 -9l-27 6v-1q0 -95 34 -183zM131 243l-17 10l-35 -50l-45 -2q56 -146 186 -237.5t292 -91.5q164 0 295.5 94t186.5 244l-40 27l-14 -10l-62 50l-24 3l-57 -16l-24 17
l-26 -20l-33 13l-22 -5l-34 -16l-11 -18l-34 -16l-25 -3l-79 -39l-73 32l-30 -9l-18 29l-54 -15l-42 41l-56 22l-30 -12l-19 17zM182 701q8 0 15 -4q8 8 19 8v0q10 0 17 -6t10 -15q10 -3 14 -13h2q9 0 15.5 -6.5t6.5 -15.5t-6.5 -15t-15.5 -6q-5 0 -10 2q-2 -6 -8 -10.5
t-13 -4.5v0v0q-9 0 -15 6q-7 -6 -16 -6v0v0q-8 0 -15 5q-6 -7 -16 -7v0v0q-8 0 -15 7q-2 -1 -5 -1q-11 0 -18.5 7.5t-7.5 18t7.5 18.5t18.5 8q1 0 2 -1q1 13 11 22t23 9zM574 786q8 0 16 -4q7 8 19 8v0q9 0 16.5 -6t9.5 -15q11 -3 14 -13h3v0q9 0 15 -6.5t6 -14.5v0
q0 -9 -6 -15.5t-15 -6.5v0q-6 0 -10 2q-5 -15 -21 -15v0q-9 0 -16 6q-6 -6 -15 -6v0q-9 0 -15 6q-6 -7 -16 -7q-9 0 -15 6q-3 -1 -6 -1v0q-10 0 -17.5 7.5t-7.5 18.5t7.5 18.5t17.5 7.5h3q1 13 10.5 21.5t22.5 8.5zM171 2l1 12l50 -39l2 32l2 1l3 1l50 22q133 59 247 102
l5 30l47 -39l4 30l14 5q23 9 45 16l1 1l6 2l10 18l37 -18l10 18l1 1l3 1q9 3 10 3h2l10 19l37 -21l10 19l3 1l3 1q2 0 6 1l55 20h1h1l1 1l8 22l39 -48l5 15l7 23l40 -28l6 24h17q12 0 23 -2q6 0 12 -1q-45 -164 -181.5 -269.5t-311.5 -105.5q-97 0 -184.5 34t-156.5 96z
M245 16l-1 -1l-44 131h1zM256 20h-1l-66 121l1 1zM266 27l-1 -1l-86 108l1 1zM274 36v-1l-104 91l1 1zM281 45v-1l-118 72l1 1zM287 56l-1 -1l-128 50v1zM290 68v-1l-136 27l1 1zM291 80v-2l-138 4v1zM290 92l1 -1l-137 -21v1zM287 103l1 -1l-131 -44v1zM283 114v-1
l-121 -66l-1 1zM276 124l1 -1l-108 -86l-1 1zM267 133l1 -1l-91 -103h-1zM258 140l1 -1l-72 -117h-1zM247 145h1l-50 -129l-2 1zM235 149l1 -1l-27 -135h-1zM223 150h1l-3 -138h-1zM211 149h1l21 -136l-1 -1zM267 185q-18 -16 -32 -44t-17.5 -42t-5.5 -23l16 -2q1 6 5 20
t16.5 40t28.5 40q33 28 116 62l-5 14q-83 -32 -122 -65zM334 106l-10 5l61 129l10 -4zM347 283q5 -7 108 -130l9 8q-79 92 -108 129q-4 5 -4.5 11t1 10t4.5 8t5 5.5t3 2.5l-8 9q-6 -5 -11 -12.5t-6.5 -19t7.5 -21.5zM291 132l3 4l30 -25l-3 -4zM149 165l119 40l5 -13
l-100 -33zM247 225l7 5l61 -103l-7 -4zM323 107l1 -8l-106 -20l-2 8zM326 106l1 -2l-107 -20l-1 2zM254 230l-7 -5l15 -26q4 1 9 2zM292 102.5q10 -29.5 -4 -57t-43.5 -37.5t-57.5 3.5t-38 43t4 57.5t43.5 38t57.5 -4t38 -43.5zM282.5 100q-8.5 26 -33 38t-50 3t-37.5 -33
t-3.5 -50t33 -38t50 -3t37.5 33t3.5 50zM349.5 116.5q3.5 -10.5 -1.5 -20.5t-15.5 -13.5t-20.5 1.5t-13.5 15.5t1.5 20t15.5 13t20.5 -1t13.5 -15zM342.5 113.5q-2.5 7.5 -10 11.5t-15 1t-11 -10t-1 -14.5t10 -11t15 -1t11 9.5t1 14.5zM233 226q0 -1 0.5 -3t2 -5.5t4 -5
t7 -0.5t10.5 6q10 8 16 11.5t10.5 4t6.5 2.5q8 3 -2 6q-7 2 -14 0q-38 -11 -41 -16zM334 111v-3q0 -7 -6 -9q-2 -1 -3 -1q-7 0 -9 7q-1 1 -1 3q0 7 7 9h3q7 0 9 -6zM218 93l1 -4q13 6 92 38l-1 3q-11 -4 -24 -9.5t-24.5 -10t-21.5 -8.5t-16 -6.5zM225 72q93 9 99 10l-1 3
q-10 -1 -98 -10v-3zM299.5 141.5q2.5 -3.5 -0.5 -5.5l-11 -7q-3 -1 -5 2.5t1 4.5l11 7q2 2 4.5 -1.5zM234 86q1 -2 1 -4q0 -10 -9 -13q-13 -5 -17 8q-1 2 -1 5q0 9 9 12q13 5 17 -8zM213 78.5q3 -8.5 12 -5.5q6 2 6 9v3q-2 6 -9 6q-2 0 -3 -1q-9 -3 -6 -11.5zM320 106
q1 -4 5 -4q1 0 1 1q4 1 4 4v2q-2 3 -5 3h-2q-3 -1 -3 -5v-1zM379 322q-1 -6 -7 -4l-25 6q-5 1 -5 6v2q1 4 6 4h2l25 -6q4 -2 4 -6v-2zM247 390q1 -23 -5 -27l18 -2l13 15q12 4 17 11q2 3 2 4l-2 4t-1 3t0.5 2.5t0.5 2.5t-1 4l1.5 1.5t1.5 3t-2.5 3t-4.5 4.5q-1 2 -1 3.5
t1 2.5h1v1l2 -1q1 0 1 1t-0.5 3.5t-2.5 5.5t-11 3q-1 0 -5 1.5t-4 0.5l-1 2q-1 2 -2.5 2h-2.5q-11 -1 -16.5 -7t-5.5 -13.5t2 -14.5t4.5 -12.5t2.5 -6.5zM288 351q0 -7 -1.5 -13.5t-4 -12t-2.5 -6.5q-1 -3 -3.5 -12t-3 -11.5t-1.5 -8.5t0 -9t2.5 -7t5.5 -8l-52 -27
q-2 5 -1 12q0 1 -0.5 7t-1.5 14t-1 12v15v16t1 14t3.5 16.5l5.5 16.5q11 24 28 16q23 -11 26 -24zM279 264l1 -1l57 -15q11 -6 10 -23l-3 -86l22 -6q6 -6 4.5 -10.5t-6.5 -4.5l-44 1v7l1 7l3 10l-12 77q-2 0 -14.5 -1t-24 -1t-23.5 1.5t-18.5 9t-4.5 19.5q4 1 15.5 8.5
t18.5 7.5q8 1 18 0zM346 190l-2 -51l22 -6q7 -6 5 -10.5t-7 -4.5l-44 1v7l4 17l-7 44zM371 122q-2 -4 -7 -4l-44 1v7zM272 280q1 -9 8 -17q-1 1 -3 2.5t-8.5 6.5t-11 6.5t-11 3t-9.5 -3.5q-6 -7 -13 -4v7v15v16t1 14t3.5 16.5l5.5 16.5q3 6 7 10q7 0 4.5 -7.5t-7.5 -21
t2 -29.5q3 -7 7.5 -12t8 -8t9 -6.5t7.5 -4.5zM278 354l12 -31l58 25h11l8 -8q3 -5 0 -8.5t-9 -4.5l-11 6l-9 -3l-51 -27q-12 -5 -16 5l-19 34q-6 20 11 21q13 0 15 -9zM335 113.5q-2 4.5 2 5.5l13 6q4 1 5.5 -3.5t-1.5 -5.5l-14 -6q-3 -1 -5 3.5zM342 346l6 2h11l8 -8
q3 -5 0 -8.5t-9 -4.5l-11 6l-4 -2q-3 2 -3.5 7.5t2.5 7.5zM345 121l3 -5l-21 -11l-3 5zM343 117q0 -2 2 -2h1q2 1 2 2v1q-1 2 -3 2v0q-2 -1 -2 -3v0zM478 94h-1l-44 131h1zM489 99h-1l-66 121h1zM499 106l-1 -1l-86 108l1 1zM508 114l-1 -1l-103 92v1zM515 124l-1 -1
l-117 72v1zM520 135v-1l-129 50l1 1zM524 146l-1 -1l-135 28v1zM525 158v-1l-138 4v1zM524 170v-1l-136 -20l-1 1zM521 182v-1l-130 -44l-1 1zM516 193l1 -1l-122 -66v1zM509 203l1 -1l-108 -86l-1 1zM501 212l1 -1l-91 -104l-1 1zM491 219l1 -1l-72 -118l-1 1zM480 224h2
l-51 -129h-1zM469 227h1l-27 -135h-1zM457 228h1l-3 -138h-1zM445 228h1l21 -137h-1zM525.5 181.5q9.5 -29.5 -4 -57.5t-43 -38t-57.5 4t-38 43.5t4 57.5t43.5 38t57.5 -4t37.5 -43.5zM516.5 178.5q-8.5 25.5 -33 37.5t-50 3.5t-37.5 -33t-3.5 -50t32.5 -37.5t50 -3.5t38 33
t3.5 50zM468 165q4 -13 -8 -18h-5q-9 0 -12 9q-5 13 8 17q2 1 4 1q10 0 13 -9zM447 157q2 -6 8 -6h3q7 3 7 9q0 2 -1 3q-3 9 -12 6q-6 -2 -6 -9q0 -1 1 -3zM284 424l-17 -3q-1 -1 -2 -1.5t-3.5 -2.5t-4 -4t-1.5 -4.5t3 -4.5q-2 -5 -15 -7q-18 43 16 47h2.5t2.5 -2l1 -2
q0 1 4 -0.5t5 -1.5q9 0 11 -3t2.5 -5.5t0.5 -3.5v-1l-3 1v-1h-1t-1 -1zM952 365l-4 2l-2 -4l-2 -4q-3 -3 -1 -7q-1 -1 -2 -1.5l-1 -0.5l-1 -5q2 -6 1 -6q0 -5 0.5 -6.5t0 -3t-1 -2l-2.5 -2.5q-1 -5 1 -9l1 -1q2 -3 1 -4q0 -1 -0.5 -3t0.5 -3.5t0 -5.5q-1 -5 4 -7q-1 -3 0 -8
q1 -2 0.5 -4t-0.5 -4q1 -2 1.5 -2.5t2 -1.5t2.5 -3l3 -3q-1 -5 -0.5 -8t3.5 -7.5l3 -4.5q1 -2 -3 -21q-1 -2 0 -3q7 -2 15 1q-1 1 -2 3l-2 4q-1 5 -1 11q5 4 5.5 7.5t1.5 4.5q0 1 1 2l2 2q1 2 0.5 5t-0.5 5q2 7 0 11q1 1 2 1.5t2 1.5t2 3l1 2q2 5 2 5.5t-2 5.5q3 1 3 4v3
q0 2 0.5 3t1 5t0.5 13q0 4 1 5.5t1 3.5q1 3 -0.5 6l-1.5 3q0 1 1 4.5t1 5.5t-0.5 3t-1.5 2v3t-0.5 3t-2 2t-5.5 1q-2 8 -8 4q0 -1 -1 -1q-1 -1 -3 0t-4 0q-1 0 -1.5 -1t-2.5 -1q-6 -2 -8 -3zM896 322q-2 2 -5 2q-1 -1 -2 -3.5t-2 -3.5q-2 -4 -1 -8q0 -1 -1.5 -1.5l-1.5 -0.5
l-1 -5q2 -5 2 -6q-1 -5 -0.5 -6.5t0.5 -2.5t-0.5 -2t-3.5 -3q0 -5 2 -9v-1l2 -3q-1 -2 -1 -4t0.5 -3.5t-0.5 -4.5q-1 -5 4 -7q-1 -3 1 -9q0 -2 -0.5 -4t0.5 -4q0 -2 1 -2.5t2 -1.5l2 -2l3 -4q-1 -5 0 -8t3.5 -7.5l2.5 -4.5q1 -5 0.5 -7.5t-2 -8l-1.5 -5.5v-3q7 -2 15 1
q0 1 -1.5 3t-1.5 5q-1 4 -1 10q5 4 5 8t1 5l1 1l2 2q1 2 0.5 5.5t0.5 5.5q1 6 -1 10q1 1 2.5 1.5t2.5 1.5t1.5 3l0.5 2q3 5 3 5.5t-3 5.5q4 1 3 4v3q0 2 1 3.5t1.5 5t-0.5 12.5q0 4 1 6l2 4q0 3 -1 5.5t-1 3.5t0.5 4t0.5 5.5t-0.5 3t-0.5 1.5t-0.5 3.5t-0.5 3t-2 1.5t-6 1
q-2 9 -7 4l-1 -1q-2 -1 -3.5 0t-3.5 0q-1 0 -2 -1t-2 -1q-7 -2 -8 -3zM794 536q2 0 4.5 0.5t11 1t13.5 -0.5q5 -2 19 -8t22 -7q12 1 12 5q-9 -1 -12 7q-2 5 3 10t21 15q22 16 16 30q-3 -5 -16 -12q-6 -3 -11.5 -8t-12 -11.5l-9.5 -9.5q-8 -7 -10.5 -8t-10.5 0q-29 6 -40 -4z
M178 546q2 0 4.5 0.5t10.5 1t13 -0.5q6 -2 20 -8t22 -7q12 1 12 5q-10 -1 -12 7q-2 5 3 10t20 15q22 16 16 30q-3 -5 -16 -12q-5 -3 -11 -8t-12 -11.5t-10 -9.5q-7 -7 -10 -8t-10 0q-30 6 -40 -4z" />
    <glyph glyph-name="truck__easyic" unicode="&#xe606;" 
d="M672 496h80v-352h-80v352zM960 112h-896q-13 0 -22.5 9.5t-9.5 22.5v32h960v-32q0 -13 -9.5 -22.5t-22.5 -9.5zM984 401l-156 217q-5 6 -12 6h-64q-7 0 -11.5 -4.5t-4.5 -11.5v-432q0 -7 4.5 -11.5t11.5 -4.5h224q20 0 34 14t14 34v146q0 17 -11.5 30.5t-28.5 16.5z
M893 608q16 0 28.5 -9t17.5 -24l45 -174q-115 23 -149 33q-15 4 -25 17t-10 29v128h93zM800 592q-7 0 -11.5 4.5t-4.5 11.5v76q0 13 -9 23l-18 18q-12 11 -0.5 22.5t22.5 -0.5l18 -18q19 -18 19 -45v-76q0 -7 -4.5 -11.5t-11.5 -4.5zM656 688h-608q-20 0 -34 -14t-14 -34
v-432q0 -20 14 -34t34 -14h640q7 0 11.5 4.5t4.5 11.5v464q0 20 -14 34t-34 14zM0 208q0 -20 14 -34t34 -14h640q7 0 11.5 4.5t4.5 11.5v112h-704v-80zM496 80h-128q-13 0 -22.5 9.5t-9.5 22.5v32q0 13 9.5 22.5t22.5 9.5h128q13 0 22.5 -9.5t9.5 -22.5v-32
q0 -13 -9.5 -22.5t-22.5 -9.5zM384.5 112q-6.5 0 -11.5 5t-5 11t5 11q4 5 11 5t11 -5q5 -5 5 -11.5t-4.5 -11t-11 -4.5zM968 288q-10 0 -17 -7t-7 -17t7 -17t17 -7h24v48h-24zM192 128zM80 128q0 -46 33 -79t79 -33t79 33t33 79t-33 79t-79 33t-79 -33t-33 -79zM192 128z
M128 128q0 -26 19 -45t45 -19t45 19t19 45t-19 45t-45 19t-45 -19t-19 -45zM832 128zM720 128q0 -46 33 -79t79 -33t79 33t33 79t-33 79t-79 33t-79 -33t-33 -79zM832 128zM768 128q0 -26 19 -45t45 -19t45 19t19 45t-19 45t-45 19t-45 -19t-19 -45zM992 288h32v-48h-32v48z
M944 624h-192q-7 0 -11.5 -4.5t-4.5 -11.5v-16h208q7 0 11.5 4.5t4.5 11.5t-4.5 11.5t-11.5 4.5z" />
    <glyph glyph-name="scooter__easy" unicode="&#xe607;" 
d="M406 356l51 253l79 -139l-7 -33l-9 -49zM829 388q-21 0 -35.5 -15t-13.5 -36q1 -19 16.5 -32.5t35.5 -13.5h13q7 0 11.5 4.5t4.5 11.5v65v0q0 7 -4.5 11.5t-11.5 4.5h-16zM910 177q-47 0 -80.5 -33.5t-33.5 -80.5t33.5 -80t80.5 -33t80.5 33t33.5 80t-33.5 80.5
t-80.5 33.5zM910 -2q-27 0 -46 19t-19 46t19 46t46 19t46 -19t19 -46t-19 -46t-46 -19zM910 47v0q-7 0 -11 5l-147 146q-11 12 0.5 23.5t22.5 -0.5l147 -146q4 -5 4 -11.5t-4.5 -11.5t-11.5 -5v0zM601 63q-40 0 -68.5 28.5t-28.5 69.5v97h-211v-195h308zM625 47h-251
q-7 0 -11.5 5t-4.5 11.5t4.5 11.5t11.5 5h251q17 0 26 14l107 154q12 17 12 37q0 12 -5 24l-40 102q-5 10 -16 10v0h-43q-6 0 -11 4.5t-5 11.5t5 11.5t11 4.5h43q15 0 27.5 -8t18.5 -22l40 -102q7 -17 7 -36q0 -31 -17 -56l-107 -154q-8 -12 -23.5 -20t-29.5 -8zM520 258
h-309q-13 0 -22.5 9.5t-9.5 23t9.5 23t22.5 9.5h309q14 0 23.5 -9.5t9.5 -23t-9.5 -23t-23.5 -9.5zM309 323h-276q-14 0 -23.5 9.5t-9.5 23.5v162q0 14 9.5 23.5t23.5 9.5h276q13 0 22.5 -9.5t9.5 -23.5v-162q0 -14 -9.5 -23.5t-22.5 -9.5zM0 486h341v-33h-341v33zM748 47
q-7 0 -12 5t-5 11q0 74 52.5 126.5t126.5 52.5q48 0 90 -24q5 -3 7 -9.5t-1.5 -12.5t-10 -7.5t-12.5 1.5q-33 20 -73 20q-60 0 -103 -43t-43 -104v0q0 -6 -5 -11t-11 -5v0zM666 437h-113v0q-9 0 -17.5 5.5t-11.5 12.5l-65 130q-6 12 -2 25t16 19t25 1.5t19 -16.5l56 -112h93
q14 0 23.5 -9.5t9.5 -23t-9.5 -23t-23.5 -9.5zM413 388h224q13 0 29 -8t24 -19q12 -17 12 -38q0 -11 -4 -21l-79 -202q-8 -21 -30 -21q-6 0 -12 2q-12 5 -17.5 17.5t-0.5 24.5l78 201l-198 -1q-14 0 -23.5 9.5t-9.5 23.5zM600 745q-5 9 -15 8q-58 -3 -85 -7.5t-31 -8.5
t-4 -13t5 -70q1 -6 6 -10q9 -9 25 -15t29 -6v0q33 0 57 24t24 58v0q0 22 -11 40zM48.5 421q-6.5 0 -11 4.5t-4.5 11.5v49h32v-49q0 -7 -5 -11.5t-11.5 -4.5zM276.5 421q-6.5 0 -11.5 4.5t-5 11.5v49h33v-49q0 -7 -5 -11.5t-11.5 -4.5zM325 63q0 -27 -19 -46t-46 -19t-46 19
t-19 46h-49q0 -47 33.5 -80t80.5 -33t80.5 33t33.5 80h-49zM263 257q-69 -9 -121.5 -55.5t-69.5 -113.5q-4 -15 6 -27.5t26 -12.5h319q19 38 15 79q-6 63 -58.5 100.5t-116.5 29.5zM630 758q-19 35 -56 51t-77 5q-29 -9 -50 -31t-28 -51q-11 -45 13 -85q4 -7 13 -7h48
q13 0 20 11l37 62q5 8 14 8v0h44q14 0 21.5 12t0.5 25z" />
    <glyph glyph-name="truck__easyic1" unicode="&#xe608;" 
d="M944 208h-864q-13 0 -22.5 9.5t-9.5 22.5v32h896v-64zM336 608h-240q-7 0 -11.5 -4.5t-4.5 -11.5v-192q0 -7 4.5 -11.5t11.5 -4.5h240q7 0 11.5 4.5t4.5 11.5v192q0 7 -4.5 11.5t-11.5 4.5zM528 656h-240q-7 0 -11.5 -4.5t-4.5 -11.5v-192q0 -7 4.5 -11.5t11.5 -4.5h240
q7 0 11.5 4.5t4.5 11.5v192q0 7 -4.5 11.5t-11.5 4.5zM780 267l-176 192q-5 5 -12 5v0h-560q-13 0 -22.5 -9.5t-9.5 -22.5v-128q0 -26 19 -45t45 -19h704v0q10 0 15 10q1 3 1 6q0 6 -4 11zM971 464l-129 25l-42 119q-10 22 -30 35t-44 13h-102q-20 0 -34 -14t-14 -34v-272
q0 -40 28 -68t68 -28h304q20 0 34 14t14 34v128q0 38 -53 48zM1024 368h-56q-10 0 -17 7t-7 17t7 17t17 7h56v-48zM192 608h32v-144h-32v144zM128 608h32v-144h-32v144zM0 320q20 0 34 14t14 34v48q0 7 -4.5 11.5t-11.5 4.5h-32v-112zM224 224zM112 224q0 -46 33 -79t79 -33
t79 33t33 79t-33 79t-79 33t-79 -33t-33 -79zM224 224zM160 224q0 -26 19 -45t45 -19t45 19t19 45t-19 45t-45 19t-45 -19t-19 -45zM864 224zM752 224q0 -46 33 -79t79 -33t79 33t33 79t-33 79t-79 33t-79 -33t-33 -79zM864 224zM800 224q0 -26 19 -45t45 -19t45 19t19 45
t-19 45t-45 19t-45 -19t-19 -45zM800 608q-4 8 -10 16h-166v-103q0 -13 9.5 -22.5t22.5 -9.5h186zM992 416h32v-48h-32v48zM272 608h272v-32h-272v32zM272 528h272v-32h-272v32z" />
    <glyph glyph-name="crane__easyic" unicode="&#xe609;" 
d="M838.5 260q-29.5 0 -50 21t-20.5 50q0 8 5 13t13 5t12.5 -5t4.5 -13q0 -15 10.5 -25t25 -10t25 10t10.5 25t-10.5 25t-24.5 10q-7 0 -12.5 5.5t-5.5 12.5v406q0 8 5 13t13 5t12.5 -5t4.5 -13v-390q23 -5 38 -24.5t15 -44.5q0 -29 -20.5 -50t-50 -21zM791 843l-380 -406
h124q19 0 35 -5l269 358q-20 1 -34 16.5t-14 36.5zM759 -128h-547q-40 0 -68.5 28.5t-28.5 68.5t28.5 68.5t68.5 28.5h547q40 0 68.5 -28.5t28.5 -68.5t-28.5 -68.5t-68.5 -28.5zM274 -30.5q0 18.5 -13 31t-31.5 12.5t-31.5 -12.5t-13 -31t13 -31.5t31.5 -13t31.5 13
t13 31.5zM786 -30.5q0 18.5 -13 31t-31.5 12.5t-31.5 -12.5t-13 -31t13 -31.5t31.5 -13t31.5 13t13 31.5zM397 66h177v53h-177v-53zM362 402v-142h-193q-22 0 -38 -16t-16 -38v-87h529v209q0 24 -7 40q-11 32 -39 50.5t-63 18.5h-138q-14 0 -24.5 -10.5t-10.5 -24.5z
M169 260q-22 0 -38 -16t-16 -38v-16h88q22 0 37.5 15.5t15.5 37.5v17h-87zM531 437h-81v-127q0 -23 13.5 -41t34.5 -26l146 -53v138q0 55 -47 91q-28 18 -66 18zM697 -30.5q0 15.5 10.5 27.5t25.5 16h-495q15 -2 25.5 -14.5t10.5 -29.5q0 -16 -10 -28t-26 -16h495
q-15 4 -25.5 16.5t-10.5 28zM897 843q0 23 -15.5 38t-38 15t-37.5 -15t-15 -37.5t15 -38t38 -15.5q21 0 37 15.5t16 37.5zM780 712l-7 96q0 8 -5 10l-28 -30l7 -81l-94 -12l-35 -39l7 -113l-129 -18l-32 -33q6 -6 13 -6h1l151 20l30 40l-8 110l99 12zM874 419h-71
q-8 0 -12.5 5t-4.5 13t4.5 13t12.5 5h71q8 0 13 -5t5 -13t-5 -13t-13 -5v0z" />
    <glyph glyph-name="ambulance__ea" unicode="&#xe60a;" 
d="M329 618q1 14 7 27h-3h-99q-12 0 -21 -7.5t-11 -19.5v0h127v0zM329 617v1h-127v0q-9 1 -21 0t-35 -11t-35 -28.5t-33 -62.5t-43 -79q-22 -32 -28 -52t-6 -44q0 -11 -0.5 -40t-0.5 -57q0 -71 77 -71h41q1 40 29.5 67.5t68.5 27.5t68 -27.5t29 -67.5h16v444zM293 373
l-176 1q-13 0 -20 12t1 34q33 65 48 89q7 11 20 16.5t22 5.5l10 1h95v-159zM216 269q-40 0 -68.5 -28t-29.5 -68l-0.5 -1l-0.5 -1q0 -41 29 -70t70 -29t69.5 29t28.5 70v1v1q-1 40 -29.5 68t-68.5 28zM268 170.5q0 -21.5 -15 -37t-37 -15.5t-37 15.5t-15 37t15 37t37 15.5
t37 -15.5t15 -37zM216 171zM162 170.5q0 -22.5 16 -38t38 -15.5t37.5 15.5t15.5 38t-15.5 38t-37.5 15.5t-38 -15.5t-16 -38zM146 509q-15 -24 -48 -89q-8 -22 -1 -34t20 -12l176 -1v159h-95q-37 2 -52 -23zM960 681h-567q-19 0 -34.5 -10t-22.5 -26q-9 -19 -9 -28v-444h355
v0q0 40 29 69t69 29t69 -29t29 -69v0h82q27 0 45.5 18.5t18.5 44.5v381q0 26 -18.5 45t-45.5 19zM759 444q0 -10 -7 -17t-17 -7h-39v-39q0 -10 -7.5 -17.5t-17.5 -7.5h-16q-10 0 -17.5 7.5t-7.5 17.5v39h-39q-10 0 -17 7t-7 17v17q0 10 7 17t17 7h39v39q0 10 7.5 17t17.5 7
h16q10 0 17.5 -7t7.5 -17v-39h39q10 0 17 -7t7 -17v-17v0zM780 271q-41 0 -69.5 -28.5t-28.5 -69.5v0q0 -41 28.5 -69.5t69.5 -28.5t69.5 28.5t28.5 69.5v0q0 41 -28.5 69.5t-69.5 28.5zM780 121q-22 0 -37 15t-15 37t15 37t37 15t37 -15t15 -37t-15 -37t-37 -15zM780 173z
M726 173q0 -22 16 -38t38 -16t38 16t16 38t-16 38t-38 16t-38 -16t-16 -38zM300 673q0 10 -8 16.5t-20 6.5t-20.5 -6.5t-8.5 -16.5v-28h57v28zM735 485h-39v39q0 10 -7.5 17t-17.5 7h-16q-10 0 -17.5 -7t-7.5 -17v-39h-39q-10 0 -17 -7t-7 -17v-17q0 -10 7 -17t17 -7h39v-39
q0 -10 7.5 -17.5t17.5 -7.5h16q10 0 17.5 7.5t7.5 17.5v39h39q10 0 17 7t7 17v17q0 10 -7 17t-17 7z" />
    <glyph glyph-name="electric_car_" unicode="&#xe60b;" 
d="M883 459h-323v0q-6 0 -11 5t-5 11v0v0q0 7 5 11.5t11 4.5h323q45 0 77 32t32 77v17q0 46 -32 78t-77 32h-323v0q-6 0 -11 4.5t-5 11.5v0v0q0 6 5 10.5t11 4.5h323q58 0 99.5 -41t41.5 -100v-17q0 -58 -41.5 -99.5t-99.5 -41.5zM513 685h-84q-6 0 -10.5 5t-4.5 11.5
t4.5 11t10.5 4.5h84v0q6 0 11 -4.5t5 -11.5v0q0 -6 -5 -11t-11 -5zM513 770h-84q-6 0 -10.5 4.5t-4.5 11.5t4.5 11.5t10.5 4.5h84v0q6 0 11 -4.5t5 -11.5v0v0q0 -7 -5 -11.5t-11 -4.5zM582 710q0 -15 -11 -26t-27 -11h-46q-8 0 -13.5 5.5t-5.5 12.5v105q0 8 5.5 13.5
t13.5 5.5h46q16 0 27 -11t11 -27v-67zM508 691v105q0 8 5.5 13.5t13.5 5.5h-29q-8 0 -13.5 -5.5t-5.5 -13.5v-105q0 -7 5.5 -12.5t13.5 -5.5h29q-8 0 -13.5 5.5t-5.5 12.5zM238 -15q0 -13 -9 -22.5t-22 -9.5h-76q-13 0 -22 9.5t-9 22.5v155q0 13 9 22t22 9h76q13 0 22 -9
t9 -22v-155zM197.5 163q-6.5 0 -11 -4.5t-4.5 -11.5v-194h25q3 0 7 1v193v0q0 7 -5 11.5t-11.5 4.5zM140.5 163q-6.5 0 -11 -4.5t-4.5 -11.5v-193q3 -1 6 -1h26v194q0 7 -5 11.5t-11.5 4.5zM915 -15q0 -13 -9 -22.5t-22 -9.5h-76q-13 0 -22 9.5t-9 22.5v155q0 13 9 22t22 9
h76q13 0 22 -9t9 -22v-155zM874.5 163q-6.5 0 -11 -4.5t-4.5 -11.5v-194h25q3 0 6 1v193v0q0 7 -4.5 11.5t-11 4.5zM817 163q-6 0 -10.5 -4.5t-4.5 -11.5v-193q3 -1 6 -1h25v194v0q0 7 -4.5 11.5t-11.5 4.5v0zM865 326h120q10 0 16.5 6.5t6.5 16.5v32q0 10 -6.5 16.5
t-16.5 6.5h-962q-9 0 -16 -6.5t-7 -16.5v-32q0 -10 7 -16.5t16 -6.5h97h745zM23 326q-9 0 -16 6.5t-7 16.5v32q0 10 7 16.5t16 6.5h962q10 0 16.5 -6.5t6.5 -16.5v-32q0 -10 -6.5 -16.5t-16.5 -6.5h-962zM44 349v32q0 10 6.5 16.5t16.5 6.5h-44q-9 0 -16 -6.5t-7 -16.5v-32
q0 -10 7 -16.5t16 -6.5h44q-10 0 -16.5 6.5t-6.5 16.5zM971 244q0 44 -31 75t-76 31h-720q-44 0 -75.5 -31t-31.5 -75v-136q0 -14 9.5 -23.5t23.5 -9.5h868q14 0 23.5 9.5t9.5 23.5v136zM938 141h-868q-14 0 -23.5 9.5t-9.5 22.5v-65q0 -14 9.5 -23.5t23.5 -9.5h868
q14 0 23.5 9.5t9.5 23.5v65q0 -13 -9.5 -22.5t-23.5 -9.5zM210 326q-14 0 -24 10l-41 41q-10 10 -10.5 23t7.5 23l127 154q10 13 26 13v0h417q17 0 27 -13l127 -154q8 -10 7.5 -23t-9.5 -23l-42 -41q-10 -10 -24 -10v0h-588zM237 139q0 -9 -10 -9h-116v0q-10 0 -10 9v44
q0 9 10 9v0h116v0q10 0 10 -9v-44zM914 139q0 -9 -10 -9h-116q-10 0 -10 9v44q0 9 10 9h116v0q10 0 10 -9v-44zM280 241v0q6 0 11 5t5 11.5t-5 11t-11 4.5v0h-239q-4 -14 -4 -29v-3h243zM708 257v0q0 -6 5 -11t11 -5h247v3q0 15 -4 29h-243v0q-6 0 -11 -4.5t-5 -11.5v0z
M866 423l-127 154q-10 13 -27 13h-417q-16 0 -26 -13l-127 -154q-8 -10 -7.5 -23t10.5 -23l25 -26q2 3 3 5l116 154q9 13 24 13h382q14 0 24 -13l116 -154q1 -2 3 -5l26 26q9 10 9.5 23t-7.5 23zM617 133q0 -9 -8 -9h-210v0q-8 0 -8 9v79q0 9 8 9h210v0q8 0 8 -9v-79v0z
M472 385h-218v0q-7 0 -11.5 -4.5t-4.5 -10.5v0v0q0 -7 4.5 -11.5t11.5 -4.5h202v-28h32v44q0 6 -4.5 10.5t-11.5 4.5zM754 385h-218q-7 0 -11.5 -4.5t-4.5 -11t4.5 -11t11.5 -4.5h202v-28h32v44v0q0 6 -4.5 10.5t-11.5 4.5v0z" />
    <glyph glyph-name="rocket__easyi" unicode="&#xe60c;" 
d="M319 174q33 -33 33 -81t-33 -82q-24 -24 -68 -45.5t-87 -28t-67 15.5q-22 24 -15 67t28.5 87t44.5 67q34 34 81.5 34t82.5 -34zM185 196v-5q0 -62 44.5 -106.5t106.5 -44.5h3q17 32 11.5 69.5t-32.5 64.5q-26 27 -63.5 32.5t-69.5 -10.5zM554 425.5
q105 -105.5 117 -233.5t-83 -227l-61 -62q-25 -25 -41 -31t-25 10.5t-12.5 34t-9.5 58.5q-2 16 -3.5 24.5t-4 25t-4.5 26.5t-5.5 25.5t-7 27t-8.5 25.5t-10.5 25.5t-12.5 23.5t-15.5 23t-17.5 20q-11 11 -23.5 20t-24.5 16.5t-27.5 13.5t-28 10.5t-30 9t-28.5 7t-29.5 5
t-28 4t-26.5 3.5q-42 6 -59.5 9.5t-34 13t-10.5 25t31 40.5l62 62q100 95 228 83t233 -117.5zM1007 878q13 -13 16.5 -49t-7.5 -93t-37 -122.5t-79 -145t-125 -151.5q-74 -74 -142 -130t-99 -75l-31 -19q-27 -19 -50.5 -28.5t-44.5 -8.5t-37 5t-36 18.5t-32.5 26t-34.5 33.5
q-19 19 -29 29.5t-24 28t-19 30t-9.5 30.5t-1.5 34.5t12 38t25 44.5q6 12 20.5 34t72.5 93t132 145q72 73 151.5 126t144.5 79t122 37t93 7.5t49 -17.5zM547 129q-28 -19 -52.5 -29t-46.5 -9t-38.5 5t-37.5 19t-34 27t-35 35q-21 20 -31 30.5t-24.5 29t-20 31t-10 31.5
t-1 36.5t12.5 39.5t26 47l12 19q-14 -19 -25.5 -35.5t-15.5 -24.5l-4 -7q-16 -23 -25 -44.5t-12 -38t1.5 -34.5t9.5 -30.5t19 -30t24 -28t29 -29.5q27 -26 41.5 -39.5t39 -28t45 -15.5t49 7t60.5 30q50 28 136 99q-26 -20 -49 -36t-33 -22zM739 610q29 -29 29 -70.5
t-29.5 -71t-71 -29.5t-70.5 29.5t-29 71t29 71t71 29.5t71 -30zM507 362q16 -15 -14.5 -66.5t-101.5 -122.5q-69 -69 -115 -94t-62 -9t9 62t95 115q72 71 122.5 101t66.5 14zM668 616q31 0 53.5 -22.5t22.5 -53.5t-22.5 -53.5t-53.5 -22.5t-53.5 22.5t-22.5 53.5t22.5 53.5
t53.5 22.5zM668 640q-42 0 -70 -30q-30 -29 -30 -70.5t30 -70.5q29 -30 70 -30q42 0 71 30q29 29 29 70.5t-29 70.5q-29 30 -71 30zM762 858q11 -86 83 -157q63 -62 137 -79q25 61 35 118t6 91t-16 47t-45 17t-87 -5t-113 -32z" />
    <glyph glyph-name="airplane__eas" unicode="&#xe60d;" 
d="M184 217l162 -161q7 -7 14.5 -72.5t1.5 -71.5l-32 -32q-7 -7 -16.5 -7t-15.5 7l-17 16l-128 128l-129 130l-16 16q-7 6 -7 15.5t7 16.5l32 32q6 6 71.5 -2t72.5 -15zM244 799q-18 0 -31 -13t-13 -30.5t13 -30.5t31 -13t31 13t13 30.5t-13 30.5t-31 13zM380 752
q-18 0 -31 -13t-13 -31t13 -31t31 -13t31 13t13 31t-13 31t-31 13zM880 260q0 18 -13 31t-31 13t-31 -13t-13 -31t13 -31t31 -13t31 13t13 31zM883.5 168q-17.5 0 -30.5 -13t-13 -31t13 -31t30.5 -13t30.5 13t13 31t-13 31t-30.5 13zM599 628l158 -158q16 -15 101.5 -262.5
t72.5 -259.5l-63 -63q-13 -13 -31.5 -13t-31.5 13l-349 444l-443 347q-13 14 -13 32t13 32l63 63q12 12 259.5 -73.5t263.5 -101.5zM1005 876q21 -24 19 -61.5t-21 -77.5t-45 -67l-572 -571q-28 -29 -86 -66t-118.5 -59t-80.5 -1.5t2 80.5t59 118t66 87l571 571
q42 43 106 60t100 -13zM267 219l571 571q35 35 89.5 54.5t91.5 7.5q-4 14 -14 25q-36 30 -100 12.5t-106 -60.5l-571 -571q-29 -28 -66 -86t-59 -118.5t-2 -80.5q10 -9 30 -9q0 47 48.5 131.5t87.5 123.5zM280 467l90 -70l231 231l-2 2q-7 7 -110 46zM526 239l278 -354
q12 -12 29 -12.5t31 9.5l-307 388zM398 428l-390 305q-9 -13 -7.5 -29t12.5 -28l355 -278zM368 398l30 30l-88 69l-30 -30z" />
    <glyph glyph-name="car__easyicon1" unicode="&#xe60e;" 
d="M768 128v-56q0 -17 11.5 -28.5t27.5 -11.5h65v96h-104v0zM152 32h65q16 0 27.5 11.5t11.5 28.5v56h-104v-96zM840 128v-130q0 -23 15.5 -38.5t37.5 -15.5h29q23 0 38 15.5t15 38.5v146zM48 -2q0 -23 15.5 -38.5t37.5 -15.5h29q23 0 38 15.5t15 38.5v130l-135 16v-146z
M509 824h2q101 0 167 -21t103.5 -65.5t52 -103.5t14.5 -146h-672q0 87 15 146t51.5 103.5t102 65.5t164.5 21zM510 784h2q88 0 146.5 -18.5t91 -57.5t45.5 -91t13 -129h-592q0 76 13 128.5t45.5 91.5t90.5 57.5t145 18.5zM512 216q122 0 209 -20t87 -48t-87 -48t-209 -20
t-209 20t-87 48t87 48t209 20zM179 464l334 48l332 -48q74 0 126.5 -53t52.5 -129v-39q0 -52 -51 -52h-922q-51 1 -51 53v39q0 75 52.5 128t126.5 53zM41 200h941q11 0 18 -7t7 -17q0 -20 -14.5 -34t-35.5 -14h-891q-21 0 -35.5 14t-14.5 34q0 10 7.5 17t17.5 7zM858 489
q-3 -2 -9.5 -5.5t-25.5 -18.5t-35.5 -35t-37 -57.5t-33.5 -82.5q-1 -4 -3.5 -10t-10.5 -21.5t-17.5 -27.5t-25 -21.5t-33.5 -9.5h-230q-18 0 -33.5 9t-25.5 22.5t-17 26.5t-11 22l-3 10q-13 45 -33 82t-38 57.5t-34 34.5t-26 19l-10 4q-9 4 -12 8.5t-1.5 8.5t4.5 7.5t6 5.5
l3 2q37 21 86 35t92.5 20t82.5 8.5t62 1.5h23q9 0 24 0.5t59.5 -2t85 -8t91 -20t86.5 -35.5q4 -2 8 -5t5 -11t-13 -14zM342 301q6 -18 20.5 -39.5t31.5 -21.5h70v304q-150 0 -248 -43q86 -65 126 -200zM560 544v-304h63q18 0 32 21.5t19 39.5q41 134 125 200q-92 42 -239 43
zM496 584h32v-384h-32v384zM144 392q-30 0 -51 -21t-21 -51t21 -51t51 -21t51 21t21 51t-21 51t-51 21zM880 392q-30 0 -51 -21t-21 -51t21 -51t51 -21t51 21t21 51t-21 51t-51 21zM144 344q-10 0 -17 -7t-7 -17t7 -17t17 -7t17 7t7 17t-7 17t-17 7zM880 344q-10 0 -17 -7
t-7 -17t7 -17t17 -7t17 7t7 17t-7 17t-17 7zM866 504h-14q-12 0 -20.5 -8t-8.5 -20v-14q0 -5 10.5 -9t25 -4t25 4t10.5 9v14q1 11 -7.5 19.5t-20.5 8.5zM170 504h-14q-12 0 -20.5 -8t-8.5 -20v-14q0 -5 10.5 -9t24.5 -4q15 0 25.5 4t10.5 9v14q1 11 -7.5 19.5t-20.5 8.5z
M238 647q29 14 63.5 28t95.5 28.5t113 14.5q76 0 151 -23t124 -48q-26 70 -90.5 103.5t-182.5 33.5h-2q-117 0 -181 -33.5t-91 -103.5zM880 376q23 0 39.5 -16.5t16.5 -39.5t-16.5 -39.5t-39.5 -16.5t-39.5 16.5t-16.5 39.5t16.5 39.5t39.5 16.5zM144 376q23 0 39.5 -16.5
t16.5 -39.5t-16.5 -39.5t-39.5 -16.5t-39.5 16.5t-16.5 39.5t16.5 39.5t39.5 16.5zM880 392q-30 0 -51 -21t-21 -51t21 -51t51 -21t51 21t21 51t-21 51t-51 21zM144 392q-30 0 -51 -21t-21 -51t21 -51t51 -21t51 21t21 51t-21 51t-51 21z" />
    <glyph glyph-name="ufo__easyicon" unicode="&#xe60f;" 
d="M512.5 112q-39.5 0 -68 -28t-28.5 -68t28.5 -68t68 -28t67.5 28t28 68t-28 68t-67.5 28zM768.5 176q-39.5 0 -68 -28t-28.5 -68t28.5 -68t68 -28t67.5 28t28 68t-28 68t-67.5 28zM256.5 176q-39.5 0 -68 -28t-28.5 -68t28.5 -68t68 -28t67.5 28t28 68t-28 68t-67.5 28z
M218 421q122 75 294 75t294 -75q80 -49 108.5 -115t0 -132t-108.5 -115q-122 -75 -294 -75t-294 75q-60 37 -91 85t-31 96t31 96t91 85zM258 83q-77 48 -106 111.5t-5.5 127t95.5 112.5q-8 -4 -24 -13q-80 -49 -108.5 -115t0 -132t108.5 -115q122 -75 294 -75t294 75
q3 2 16 11q-122 -65 -285.5 -61.5t-278.5 74.5zM150 599q150 89 362 89t362 -89q74 -43 112 -100t38 -114.5t-38 -114.5t-112 -100q-150 -89 -362 -89t-362 89q-98 58 -133 136t0 156.5t133 136.5zM907 201q-150 -89 -362 -89t-362 89q-80 47 -118.5 108t-32 124.5
t55.5 120.5q-67 -58 -83.5 -128t21.5 -138t124 -119q150 -89 362 -89t362 89q57 34 94 76q-26 -22 -61 -44zM512 848q87 0 161 -43t116.5 -116.5t42.5 -160.5q0 -64 -24.5 -114t-69 -80.5t-101.5 -46t-124.5 -15.5t-125 15.5t-101.5 46t-69 80.5t-25 114q0 87 43 160.5
t116.5 116.5t160.5 43zM192 528q0 -64 25 -114t69 -80.5t100.5 -46t123.5 -15.5h2v576q-87 0 -160.5 -43t-116.5 -116.5t-43 -160.5zM512.5 272q113.5 0 191.5 41v215q0 80 -56 136t-135.5 56t-136 -56t-56.5 -136v-215q79 -41 192.5 -41zM320 528v-215q80 -41 191 -41h1
v448q-79 0 -135.5 -56.5t-56.5 -135.5zM512.5 592q39.5 0 67.5 -28t28 -68t-28 -68t-67.5 -28t-68 28t-28.5 68t28.5 68t68 28zM512 592q-39 0 -67.5 -28t-28.5 -68t28.5 -68t67.5 -28v192zM512.5 544q19.5 0 33.5 -14t14 -34t-14 -34t-33.5 -14t-34 14t-14.5 34t14.5 34
t34 14zM512 544q-19 0 -33.5 -14t-14.5 -34t14.5 -34t33.5 -14v96z" />
    <glyph glyph-name="boat__easyico2" unicode="&#xe610;" 
d="M512 896q104 0 199 -40.5t163.5 -109t109 -163.5t40.5 -199t-40.5 -199t-109 -163.5t-163.5 -109t-199 -40.5t-199 40.5t-163.5 109t-109 163.5t-40.5 199t40.5 199t109 163.5t163.5 109t199 40.5zM642 438v16v0l25 2l30 1q-9 3 -18 10l47 3q-3 10 -6 21v1v1h-1v2v0l-1 1
v1v1l-1 1v1v1h-1v2v1h-1v1v1l-1 1v1v1h-1v2l-1 1v0v1l-1 1v0v2l-1 1v0v1l-1 1v1l-1 1v1v0l-1 1v2v0l-1 1l-1 1v0v1l-1 2v0v1l-1 1l-1 1v1v1l-1 1l-1 1v0v1l-1 1v1l-1 1v1v0l-1 1l-1 1v1v0l-1 2v0l-1 1v1h-1v1l-1 1v1h-1v2h-1v1l-1 1v1v0l-1 1l-1 1v0l-1 1v1l-1 1v1l-1 1v0
l-1 1v1h-1v1l-1 1v0l-1 1v0q-19 28 -47 55q11 -34 11 -66v0v-1v0v0q0 -4 -1 -8v-1v0q-1 -15 -4 -29v0v0l-1 2v0v0l-9 178h-10q-27 -33 -45 -60l-1 -1v0l-1 -1l-1 -1v0v-1l-1 -1v-1l-1 -1v0v0l-1 -1l-1 -1v-1v0l-1 -1v-1l-1 -1v-1h-1v0l-1 -1v-1l-1 -1v-1v0l-1 -1v-1l-1 -1v0
h-1v-1l-1 -1v-1l-1 -1v0v-1l-1 -1v-1l-1 -1v0v0l-1 -1v-1l-1 -1v0l-1 -1v-1l-1 -1v-1l-1 -1l-1 -1v-1l-1 -1v0v-1l-1 -1v-1l-1 -1v0v-1l-1 -1v-1h-1v-1v0l-1 -1v-1l-1 -1v0v-1l-1 -1v-1v-1h-1v-1v-1q-9 -16 -15 -32v-1l-1 -1v0v0v-1v-1v0l-1 -1v0v-1v0v-1h-1v-1v-1v0l-1 -1
v0v0v-1v-1v0l-1 -1v-1v0v0v-1v0l-1 -1v-1v0v-1v0l-1 -1v0v-1v-1v0l-1 -1v0v-1v0v-1v0v-1l-1 -1v0v-2v0l-1 -1v-1v0v-1v0v-1h-1v-1v-1v0v-1v0v-1h-1v-1v0v-1v-1v0l-1 -1v-1v0q-7 -31 -8 -62l94 5v0l34 2l1 -16l-128 -7v0v0v0v-1v0v0v0v0v0v0v0v0v-1h1v0v0v0v0v0v0v-1v0v0v0v0
v0h1v0v0v-1v0v0v0v0v0v0v0v0v-1h1v0v0v0v0v0v0v0v0v-1v0v0v0v0h1v0v0v0v0v-1v0v0v0v0v0v0v0h1v-1v0v0v0v0v0v-1v0v0h1v0v0v0v-1v0v0v0h1v0v0v-1v0v0h1v-1v0v0v0v0v0v0l1 -1v0v0v-1v0h1v0v0v0v-1v0v0h1v0v0v0v0v-1v0v0h1v0v0v-1v0v0v0v0h1v0v0v-1v0v0v0v0h1v0v-1v0v0v0v0h1v0
v-1v0v0v0h1v0v0v-1v0v0v0h1v0v0v-1v0v0v0h1v0v-1v0v0v0h1v0v0v0v0v-1v0h1v0v0v-1h1v0v0v0v0v0v0l1 -1v0v0v0v0v0v0h1v-1v0v0v0v0h1v0v0v0v-1v0h1v0v0v0v0v-1h1v0v0v0v0v0h1v-1v0v0v0h1v0v0v0v-1v0h1v0v0v0l1 -1v0v0v0v0v0h1v0v0v0v-1h1v0v0v0v0h1v0v-1v0v0v0h1v0v0v0l1 -1v0
v0v0v0v0h1v0v0v0v-1h1v0v0v0v0v0h1l1 -1v0q15 -7 32 -11v0v0h2v0v0q28 -5 63 0q18 3 43 9h1v0h1v0v0h1v0v1v0h1h1v0h1v0l1 1h1v0v0h1v0v0v0h1v0l1 1h1v0v0h1v0l7 2v0v0l1 1v0v0v0h1v0v0v0l2 1v0h1v0v0v0h2v0v1v0h1v0h1v0h1v0l1 1v0h1v0v0v0h1v1v0v0h1v0h1v0v0h1v1v0h1v0v0h1
v0h1v1v0h1v0v0h1v0v0l1 1v0v0h1v0h1v0h1v1v0h1v0v0h1v0v0l1 1v0h1v0v0h1v0v0l1 1v0v0h1v0v0h1v1v0h1v0h1v0v0l1 1v0v0h1v0v0h1v0v1h1v0v0h1v0h1v1v0h1v0v0h1v0v0l1 1v0v0h1v0h1v0v1h1v0h1v0v0h1v1v0v0v0h1v0v0v0h1v0v0v1h1v0v0v0h1v0v0v0h1v0l7 -30h8l-2 36v4l-1 11v8z
M627 545h1l-9 154q-10 -43 -7 -85h1v-1v-1v-1v-1v-1v-1v-1v-1v-1v-1l1 -1v-1v-1v-1v-1v-1v-1v-1l1 -1v-1v-1v-1v-1l1 -1v-1v-1v0v-2v-1l1 -1v-1v0v-2v0l1 -2v0v-1v-2v0l1 -1v-1v-1v-1v-1l1 -1v0v-2v0l1 -1v-2v0l1 -2v0v-1v-1v-1l1 -1v0v-2v0l1 -1v-1v-1l1 -1v0v-2v0l1 -1v-1
v-1l1 -1v0v-2zM578 383q-1 -1 -2 -1q1 0 2 1zM1 353q98 -11 209.5 -3.5t200.5 24t198 30.5t202 15.5t213 -20.5v-15q0 -104 -40.5 -199t-109 -163.5t-163.5 -109t-199 -40.5q-100 0 -192 37.5t-160 102t-110.5 153.5t-48.5 188zM15 259q91 -13 196.5 -13.5t199 4.5t189 8
t199.5 -5t199 -31q-52 -155 -185 -252.5t-301 -97.5q-178 0 -316 109t-181 278zM79 111q101 -3 226 8.5t220 26.5t221 23t229 -4q-63 -132 -187.5 -212.5t-275.5 -80.5q-135 0 -249.5 64.5t-183.5 174.5zM172 1q130 -2 373 30t365 31q-71 -88 -175 -139t-223 -51
q-96 0 -183.5 34t-156.5 95zM185 285q-2 3 -7 4.5t-11.5 3t-9.5 3.5q-5 2 -8.5 7t-4.5 9l-2 5q-2 -11 -21 -18l-17 -11q-1 18 6.5 29.5t15.5 14.5l7 2q1 14 0 31t2 40q-1 10 -4 11q-3 3 -8.5 2t-8.5 0t0 6q8 15 43 34q25 29 57 36q11 3 18 -1t7 -8l1 -5q25 7 30 -4
q1 -1 1 -2q0 -3 -2 -5q-3 -6 -32 -21q-10 -6 -20 -13q5 -6 6 -12t0 -10t-2.5 -5.5t-2.5 -1.5q-1 1 -5.5 7t-10.5 10l-4 -4q2 -6 2 -12q1 -25 -6 -26q-2 0 -3.5 3t-4 8.5t-5.5 8.5q-1 -1 -3 -4q-9 -11 -16.5 -26.5t-10.5 -26.5l-3 -10q16 -3 25 -16.5t10.5 -21t1.5 -11.5z
M231 457zM296.5 796q47.5 0 81 -33.5t33.5 -81t-33.5 -80.5t-81 -33t-80.5 33t-33 80.5t33 81t80.5 33.5zM297 779q40 0 68.5 -28.5t28.5 -69t-28.5 -69t-68.5 -28.5t-68.5 28.5t-28.5 69t28.5 69t68.5 28.5zM296.5 760q32.5 0 56 -23t23.5 -55.5t-23.5 -55.5t-56 -23
t-55.5 23t-23 55.5t23 55.5t55.5 23zM429 804q13 0 24 -4q13 8 31 8q15 0 27 -6.5t15 -16.5q16 -3 22 -14h4v0q14 0 24.5 -6.5t10.5 -16.5t-10.5 -16.5t-24.5 -6.5q-9 0 -16 3q-7 -17 -33 -17q-14 0 -25 7q-10 -7 -24 -7t-23 6q-11 -8 -26 -8q-14 0 -24 7q-4 -1 -9 -1v0
q-17 0 -29 8.5t-12 20t12 19.5t29 8h4q2 14 17.5 23.5t35.5 9.5zM630 734l22 1q4 -1 14 -5.5t16 -5.5q10 1 9 4q-7 -1 -9 5q-1 4 2.5 7.5t15.5 11.5q16 11 12 22q-3 -4 -12 -9q-5 -2 -9 -5.5t-8.5 -8.5t-7.5 -7q-8 -8 -15 -6q-22 4 -30 -4z" />
    <glyph glyph-name="bottom" unicode="&#xe66b;" 
d="M308 348l196 -198q7 -7 16 -7h1h1q5 0 9 2q5 2 8 5l177 177q7 7 7 16t-6.5 15.5t-15.5 6.5t-16 -7l-141 -141v386q0 9 -6.5 15.5t-15.5 6.5t-15.5 -6.5t-6.5 -15.5v-387l-161 163q-7 6 -16 6v0q-9 0 -15.5 -6t-6.5 -15.5t7 -15.5z" />
    <glyph glyph-name="icon" unicode="&#xe621;" 
d="M305 432.5q0 49.5 -35.5 85t-85 35.5t-85 -35.5t-35.5 -85t35.5 -84.5t85 -35t85 35t35.5 84.5zM632 432.5q0 49.5 -35 85t-84.5 35.5t-85 -35.5t-35.5 -85t35.5 -84.5t85 -35t84.5 35t35 84.5zM960 432.5q0 49.5 -35 85t-84.5 35.5t-85 -35.5t-35.5 -85t35.5 -84.5
t85 -35t84.5 35t35 84.5z" />
    <glyph glyph-name="shenglvehao1" unicode="&#xe622;" 
d="M155 386q0 -32 22.5 -54.5t54.5 -22.5t54.5 22.5t22.5 54.5t-22.5 54.5t-54.5 22.5t-54.5 -22.5t-22.5 -54.5zM513 309q-32 0 -54.5 22.5t-22.5 54.5t22.5 54.5t54.5 22.5q20 0 38 -10q16 -9 27.5 -29t11.5 -38q0 -32 -22.5 -54.5t-54.5 -22.5zM715 386q0 -32 22.5 -54.5
t54.5 -22.5t54.5 22.5t22.5 54.5t-22.5 54.5t-54.5 22.5t-54.5 -22.5t-22.5 -54.5z" />
  </font>
</defs>
</svg>
